<?xml version="1.0" encoding="utf-8"?>
<!-- Generator: Adobe Illustrator 16.0.0, SVG Export Plug-In . SVG Version: 6.00 Build 0)  -->
<!DOCTYPE svg PUBLIC "-//W3C//DTD SVG 1.1//EN" "http://www.w3.org/Graphics/SVG/1.1/DTD/svg11.dtd">
<svg version="1.1" id="Layer_1" xmlns="http://www.w3.org/2000/svg" xmlns:xlink="http://www.w3.org/1999/xlink" x="0px" y="0px"
	 width="409.131px" height="56.6px" viewBox="0 0 409.131 56.6" enable-background="new 0 0 409.131 56.6" xml:space="preserve">
<g>
	<path fill="#111111" d="M13.083,0.148l11.984,26.106h-2.103l-4.1-8.962H6.188l-4.085,8.962H0L11.982,0.148H13.083z M18.101,15.623
		L12.515,3.414L6.949,15.623H18.101z"/>
	<path fill="#111111" d="M30.207,0.334v24.251h12.821v1.67H28.203V0.334H30.207z"/>
	<path fill="#111111" d="M60.21,0.334v1.67H48.075v10.372h11.819v1.688H48.075v10.521h12.432v1.67H46.071V0.334H60.21z"/>
	<path fill="#111111" d="M74.72,11.482l9.857-11.148h2.574L76.033,12.966l11.768,13.289h-2.578L74.72,14.395l-10.487,11.86h-2.576
		l11.737-13.274L62.27,0.334h2.578L74.72,11.482z"/>
	<path fill="#111111" d="M101.033,0.148l11.984,26.106h-2.103l-4.1-8.962H94.137l-4.085,8.962h-2.103L99.932,0.148H101.033z
		 M106.05,15.623l-5.585-12.209l-5.566,12.209H106.05z"/>
	<path fill="#111111" d="M139.476,0.334v25.921h-1.649L118.119,3.6v22.655h-2.004V0.334h1.698l19.659,22.655V0.334H139.476z"/>
	<path fill="#111111" d="M145.45,0.334h9.073c4.589,0,8.093,1.206,10.511,3.618c2.418,2.412,3.627,5.529,3.627,9.352
		c0,3.748-1.197,6.844-3.59,9.287c-2.394,2.443-5.792,3.665-10.196,3.665h-9.426V0.334z M147.454,2.004v22.581h7.311
		c3.352,0,6.145-1.03,8.377-3.089c2.232-2.06,3.349-4.79,3.349-8.192c0-3.327-1.101-6.042-3.303-8.146
		c-2.202-2.103-5.053-3.154-8.554-3.154H147.454z"/>
	<path fill="#111111" d="M187.755,0.334v1.67H175.62v10.372h11.819v1.688H175.62v10.521h12.432v1.67h-14.436V0.334H187.755z"/>
	<path fill="#111111" d="M192.208,0.334h6.643c2.783,0,4.911,0.603,6.383,1.809c1.472,1.206,2.208,2.836,2.208,4.889
		c0,2.994-1.646,5.097-4.936,6.309c0.854,0.408,2.004,1.726,3.451,3.952l5.863,8.962h-2.372l-4.515-7.104
		c-1.509-2.376-2.684-3.858-3.524-4.446s-2.071-0.882-3.691-0.882h-3.506v12.432h-2.004V0.334z M194.212,2.004v10.149h4.305
		c2.189,0,3.862-0.442,5.019-1.327c1.156-0.884,1.735-2.137,1.735-3.757c0-1.596-0.588-2.839-1.763-3.729
		c-1.175-0.891-2.864-1.336-5.065-1.336H194.212z"/>
	<path fill="#111111" d="M246.239,2.208v2.264c-3.068-1.744-6.129-2.616-9.185-2.616c-3.278,0-6.006,1.089-8.183,3.266
		c-2.177,2.177-3.266,4.905-3.266,8.183c0,3.278,1.076,6.002,3.229,8.173s5.078,3.256,8.776,3.256c2.672,0,5.041-0.532,7.106-1.596
		v-6.995h-5.474v-1.67h7.496v9.927c-3.056,1.46-6.123,2.189-9.203,2.189c-4.021,0-7.375-1.274-10.066-3.822
		c-2.69-2.548-4.036-5.727-4.036-9.537c0-3.785,1.32-6.936,3.961-9.454C230.038,1.259,233.356,0,237.352,0
		C240.073,0,243.035,0.736,246.239,2.208z"/>
	<path fill="#111111" d="M270.991,0.334h2.004v14.139c0,3.872-1.008,6.859-3.024,8.962c-2.016,2.103-4.626,3.154-7.83,3.154
		c-3.191,0-5.795-1.039-7.812-3.117c-2.017-2.078-3.024-4.923-3.024-8.535V0.334h2.022v14.528c0,3.093,0.819,5.511,2.458,7.255
		c1.639,1.744,3.757,2.616,6.355,2.616c2.623,0,4.753-0.881,6.392-2.644c1.639-1.763,2.458-4.264,2.458-7.505V0.334z"/>
	<path fill="#111111" d="M297.023,0.334v1.67h-9.723v24.251h-2.022V2.004h-9.723v-1.67H297.023z"/>
	<path fill="#111111" d="M302.163,0.334v25.921h-2.004V0.334H302.163z"/>
	<path fill="#111111" d="M322.276,0.334v1.67h-12.135v10.372h11.819v1.688h-11.819v10.521h12.432v1.67h-14.436V0.334H322.276z"/>
	<path fill="#111111" d="M326.729,0.334h6.643c2.783,0,4.911,0.603,6.383,1.809s2.208,2.836,2.208,4.889
		c0,2.994-1.645,5.097-4.936,6.309c0.854,0.408,2.004,1.726,3.451,3.952l5.863,8.962h-2.372l-4.515-7.104
		c-1.509-2.376-2.684-3.858-3.524-4.446s-2.071-0.882-3.691-0.882h-3.506v12.432h-2.004V0.334z M328.733,2.004v10.149h4.305
		c2.189,0,3.862-0.442,5.019-1.327c1.156-0.884,1.735-2.137,1.735-3.757c0-1.596-0.587-2.839-1.763-3.729s-2.864-1.336-5.065-1.336
		H328.733z"/>
	<path fill="#111111" d="M348.513,0.334h6.643c2.783,0,4.911,0.603,6.383,1.809s2.208,2.836,2.208,4.889
		c0,2.994-1.645,5.097-4.936,6.309c0.854,0.408,2.004,1.726,3.451,3.952l5.863,8.962h-2.372l-4.515-7.104
		c-1.509-2.376-2.684-3.858-3.524-4.446s-2.071-0.882-3.691-0.882h-3.506v12.432h-2.004V0.334z M350.517,2.004v10.149h4.305
		c2.189,0,3.862-0.442,5.019-1.327c1.156-0.884,1.735-2.137,1.735-3.757c0-1.596-0.587-2.839-1.763-3.729s-2.864-1.336-5.065-1.336
		H350.517z"/>
	<path fill="#111111" d="M384.472,0.334v1.67h-12.135v10.372h11.819v1.688h-11.819v10.521h12.432v1.67h-14.436V0.334H384.472z"/>
	<path fill="#111111" d="M408.797,0.334l0.186,0.724l-19.407,23.527h19.556v1.67h-22.674l-0.204-0.575l19.434-23.676h-18.543v-1.67
		H408.797z"/>
</g>
<g>
	<path fill="#D81F00" d="M156.708,43.49h1.851l-5.24,13.016h-0.408l-4.237-10.539l-4.282,10.539h-0.398l-5.224-13.016h1.87
		l3.571,8.934l3.596-8.934h1.754l3.612,8.934L156.708,43.49z"/>
	<path fill="#D81F00" d="M159.997,43.49h7.348v1.651h-5.492v3.952h5.307v1.661h-5.307v4.026h5.668v1.651h-7.524V43.49z"/>
	<path fill="#D81F00" d="M173.885,56.45h-4.388V43.49h3.396c1.07,0,1.905,0.144,2.505,0.431c0.6,0.288,1.058,0.684,1.373,1.188
		c0.315,0.504,0.473,1.087,0.473,1.749c0,1.274-0.659,2.187-1.976,2.737c0.946,0.18,1.699,0.569,2.259,1.169
		c0.56,0.6,0.839,1.317,0.839,2.152c0,0.662-0.17,1.252-0.51,1.772c-0.34,0.52-0.84,0.943-1.498,1.271
		C175.699,56.287,174.875,56.45,173.885,56.45z M172.948,45.141h-1.596v3.896h1.234c0.989,0,1.693-0.188,2.11-0.566
		c0.418-0.377,0.626-0.866,0.626-1.466C175.323,45.763,174.531,45.141,172.948,45.141z M173.087,50.689h-1.735v4.11h1.828
		c1.014,0,1.702-0.079,2.064-0.236c0.361-0.158,0.652-0.404,0.872-0.738c0.219-0.334,0.329-0.692,0.329-1.076
		c0-0.396-0.116-0.757-0.348-1.085c-0.232-0.328-0.562-0.572-0.988-0.733C174.683,50.77,174.009,50.689,173.087,50.689z"/>
	<path fill="#D81F00" d="M185.491,56.432V43.49h4.37c1.763,0,3.157,0.264,4.184,0.793c1.026,0.528,1.843,1.307,2.449,2.333
		c0.606,1.027,0.909,2.146,0.909,3.358c0,0.866-0.167,1.695-0.501,2.486c-0.334,0.792-0.811,1.488-1.429,2.087
		c-0.631,0.619-1.364,1.085-2.199,1.401c-0.489,0.192-0.937,0.32-1.345,0.385c-0.408,0.065-1.188,0.098-2.338,0.098H185.491z
		 M189.666,45.141h-2.319v9.639h2.375c0.928,0,1.648-0.063,2.162-0.19c0.513-0.126,0.941-0.287,1.285-0.482
		c0.343-0.194,0.657-0.434,0.941-0.719c0.915-0.928,1.373-2.1,1.373-3.516c0-1.392-0.47-2.526-1.41-3.405
		c-0.347-0.328-0.744-0.597-1.192-0.807c-0.448-0.21-0.874-0.349-1.275-0.417C191.203,45.175,190.557,45.141,189.666,45.141z"/>
	<path fill="#D81F00" d="M199.723,43.49h7.348v1.651h-5.492v3.952h5.307v1.661h-5.307v4.026h5.668v1.651h-7.524V43.49z"/>
	<path fill="#D81F00" d="M212.433,51.02l-1.41-0.857c-0.885-0.54-1.514-1.071-1.888-1.594c-0.374-0.523-0.561-1.124-0.561-1.805
		c0-1.021,0.354-1.849,1.062-2.486c0.708-0.637,1.628-0.956,2.76-0.956c1.082,0,2.075,0.304,2.978,0.912v2.106
		c-0.934-0.898-1.939-1.348-3.015-1.348c-0.606,0-1.104,0.14-1.494,0.42s-0.584,0.639-0.584,1.077c0,0.388,0.144,0.751,0.431,1.09
		s0.749,0.695,1.384,1.067l1.417,0.839c1.581,0.944,2.371,2.146,2.371,3.605c0,1.039-0.348,1.883-1.043,2.533
		c-0.696,0.649-1.601,0.974-2.714,0.974c-1.28,0-2.446-0.394-3.498-1.181v-2.356c1.002,1.27,2.162,1.904,3.479,1.904
		c0.581,0,1.065-0.162,1.452-0.485c0.386-0.324,0.58-0.729,0.58-1.216C214.14,52.476,213.57,51.728,212.433,51.02z"/>
	<path fill="#D81F00" d="M217.943,43.49h1.855v12.96h-1.855V43.49z"/>
	<path fill="#D81F00" d="M229.679,50.067h4.351v5.492c-1.596,0.693-3.179,1.039-4.75,1.039c-2.146,0-3.861-0.626-5.144-1.879
		c-1.284-1.252-1.925-2.797-1.925-4.634c0-1.936,0.665-3.547,1.995-4.833c1.33-1.286,2.997-1.93,5-1.93
		c0.729,0,1.422,0.079,2.078,0.237c0.655,0.157,1.484,0.447,2.486,0.867v1.893c-1.546-0.896-3.08-1.345-4.602-1.345
		c-1.417,0-2.61,0.482-3.581,1.447c-0.971,0.965-1.457,2.149-1.457,3.553c0,1.472,0.485,2.675,1.457,3.609
		c0.971,0.934,2.22,1.401,3.748,1.401c0.742,0,1.629-0.17,2.663-0.51l0.176-0.056v-2.7h-2.496V50.067z"/>
	<path fill="#D81F00" d="M247.037,43.49h1.763v12.96h-1.596l-8.665-9.981v9.981h-1.744V43.49h1.503l8.739,10.066V43.49z"/>
	<path fill="#D81F00" d="M251.574,43.49h7.348v1.651h-5.492v3.952h5.307v1.661h-5.307v4.026h5.668v1.651h-7.524V43.49z"/>
	<path fill="#D81F00" d="M261.129,56.45V43.49h3.247c1.311,0,2.352,0.325,3.122,0.974c0.77,0.649,1.155,1.528,1.155,2.635
		c0,0.755-0.189,1.407-0.566,1.958c-0.377,0.551-0.918,0.962-1.624,1.234c0.414,0.272,0.819,0.644,1.215,1.113
		c0.396,0.47,0.952,1.29,1.67,2.458c0.451,0.736,0.813,1.29,1.085,1.661l0.687,0.928h-2.208l-0.565-0.854
		c-0.019-0.031-0.056-0.083-0.111-0.158l-0.361-0.511l-0.575-0.947l-0.621-1.012c-0.383-0.532-0.734-0.956-1.053-1.271
		s-0.607-0.542-0.864-0.681c-0.257-0.139-0.689-0.208-1.296-0.208h-0.483v5.641H261.129z M263.542,45.067h-0.557v4.091h0.705
		c0.94,0,1.585-0.08,1.935-0.241c0.349-0.161,0.621-0.403,0.816-0.729c0.194-0.324,0.292-0.694,0.292-1.108
		c0-0.408-0.108-0.778-0.325-1.108c-0.217-0.331-0.521-0.564-0.914-0.701C265.102,45.135,264.451,45.067,263.542,45.067z"/>
</g>
</svg>
