<?xml version="1.0" encoding="UTF-8"?>
<svg width="340px" height="40px" viewBox="0 0 340 40" version="1.1" xmlns="http://www.w3.org/2000/svg" xmlns:xlink="http://www.w3.org/1999/xlink">
    <!-- Generator: Sketch 41.2 (35397) - http://www.bohemiancoding.com/sketch -->
    <title>cfk-logo</title>
    <desc>Created with Sketch.</desc>
    <defs></defs>
    <g id="Page-1" stroke="none" stroke-width="1" fill="none" fill-rule="evenodd">
        <g id="cfk-logo" fill="#BD4023">
            <g id="Page-1">
                <g id="cfk-logo">
                    <g id="Page-1">
                        <g id="cfk-logo">
                            <path d="M15.65625,33.025 C21.3875,33.025 24.8875,30.925 28.08125,27.6 L24.625,24.1 C22,26.55 19.59375,28.0375 15.83125,28.0375 C9.96875,28.0375 5.725,23.18125 5.725,17.1875 L5.725,17.1 C5.725,11.10625 10.0125,6.29375 15.83125,6.29375 C19.33125,6.29375 21.95625,7.825 24.40625,10.1 L27.8625,6.11875 C24.93125,3.31875 21.51875,1.35 15.875,1.35 C6.6,1.35 0.08125,8.48125 0.08125,17.1875 L0.08125,17.275 C0.08125,26.06875 6.73125,33.025 15.65625,33.025 Z M33.1125,32.5 L38.40625,32.5 L38.40625,19.4625 C38.40625,15.875 40.55,13.73125 43.6125,13.73125 C46.7625,13.73125 48.55625,15.7875 48.55625,19.375 L48.55625,32.5 L53.85,32.5 L53.85,17.75625 C53.85,12.41875 50.83125,8.91875 45.625,8.91875 C42.0375,8.91875 39.89375,10.8 38.40625,12.94375 L38.40625,0.5625 L33.1125,0.5625 L33.1125,32.5 Z M66.8875,32.98125 C70.43125,32.98125 72.8375,31.49375 74.4125,29.6125 L74.4125,32.5 L79.575,32.5 L79.575,18.80625 C79.575,15.7875 78.7875,13.3375 77.08125,11.675 C75.4625,10.0125 72.88125,9.09375 69.425,9.09375 C65.75,9.09375 63.25625,9.8375 60.71875,10.975 L62.11875,15.13125 C64.21875,14.25625 66.14375,13.6875 68.725,13.6875 C72.44375,13.6875 74.45625,15.4375 74.45625,18.71875 L74.45625,19.2875 C72.6625,18.71875 70.825,18.325 68.24375,18.325 C62.6,18.325 58.70625,20.775 58.70625,25.7625 L58.70625,25.85 C58.70625,30.4875 62.55625,32.98125 66.8875,32.98125 Z M68.375,29.13125 C65.8375,29.13125 63.86875,27.8625 63.86875,25.63125 L63.86875,25.54375 C63.86875,23.1375 65.88125,21.69375 69.29375,21.69375 C71.39375,21.69375 73.1875,22.0875 74.54375,22.6125 L74.54375,24.1875 C74.54375,27.11875 71.875,29.13125 68.375,29.13125 Z M85.9187504,32.5 L91.2125,32.5 L91.2125,19.4625 C91.2125,15.875 93.3562496,13.73125 96.4187504,13.73125 C99.5687496,13.73125 101.3625,15.7875 101.3625,19.375 L101.3625,32.5 L106.65625,32.5 L106.65625,17.75625 C106.65625,12.41875 103.6375,8.91875 98.4312496,8.91875 C94.8437504,8.91875 92.7,10.8 91.2125,12.94375 L91.2125,9.4 L85.9187504,9.4 L85.9187504,32.5 Z M123.325,39.5875 C127.48125,39.5875 130.71875,38.58125 132.81875,36.48125 C134.74375,34.55625 135.75,31.66875 135.75,27.775 L135.75,9.4 L130.45625,9.4 L130.45625,12.85625 C128.6625,10.7125 126.25625,8.91875 122.3625,8.91875 C116.98125,8.91875 111.8625,12.94375 111.8625,19.76875 L111.8625,19.85625 C111.8625,26.6375 116.9375,30.6625 122.3625,30.6625 C126.16875,30.6625 128.575,28.9125 130.5,26.41875 L130.5,28.2125 C130.5,32.85 127.91875,35.3 123.19375,35.3 C120.04375,35.3 117.4625,34.38125 114.96875,32.85 L113,36.83125 C115.975,38.625 119.51875,39.5875 123.325,39.5875 Z M123.7625,26.15625 C120.13125,26.15625 117.2,23.575 117.2,19.8125 L117.2,19.725 C117.2,15.91875 120.0875,13.38125 123.7625,13.38125 C127.4375,13.38125 130.54375,15.9625 130.54375,19.725 L130.54375,19.8125 C130.54375,23.575 127.4375,26.15625 123.7625,26.15625 Z M152.9875,33.025 C157.23125,33.025 160.25,31.31875 162.4375,28.69375 L159.33125,25.9375 C157.49375,27.73125 155.65625,28.69375 153.075,28.69375 C149.6625,28.69375 146.99375,26.59375 146.425,22.83125 L163.4,22.83125 C163.44375,22.30625 163.4875,21.825 163.4875,21.34375 C163.4875,14.69375 159.76875,8.91875 152.41875,8.91875 C145.8125,8.91875 141.13125,14.34375 141.13125,20.95 L141.13125,21.0375 C141.13125,28.16875 146.29375,33.025 152.9875,33.025 Z M146.38125,19.33125 C146.8625,15.74375 149.1375,13.25 152.375,13.25 C155.875,13.25 157.8875,15.91875 158.2375,19.33125 L146.38125,19.33125 Z" id="Change"></path>
                            <path d="M184.00625,32.5 L186.15,32.5 L186.15,12.15625 L193.9375,12.15625 L193.9375,10.1875 L186.15,10.1875 L186.15,8.04375 C186.15,4.2375 187.59375,2.4 190.65625,2.4 C191.79375,2.4 192.7125,2.575 193.98125,2.96875 L193.98125,0.95625 C192.975,0.60625 192.0125,0.43125 190.65625,0.43125 C188.6875,0.43125 187.1125,1.04375 185.975,2.18125 C184.70625,3.45 184.00625,5.4625 184.00625,8 L184.00625,10.1875 L180.76875,10.1875 L180.76875,12.15625 L184.00625,12.15625 L184.00625,32.5 Z M207.98125,33.025 C214.63125,33.025 219.4875,27.6 219.4875,21.34375 L219.4875,21.25625 C219.4875,15 214.675,9.6625 208.06875,9.6625 C201.41875,9.6625 196.5625,15.0875 196.5625,21.34375 L196.5625,21.43125 C196.5625,27.6875 201.375,33.025 207.98125,33.025 Z M208.06875,31.0125 C202.90625,31.0125 198.88125,26.725 198.88125,21.34375 L198.88125,21.25625 C198.88125,16.00625 202.6875,11.675 207.98125,11.675 C213.14375,11.675 217.16875,15.9625 217.16875,21.34375 L217.16875,21.43125 C217.16875,26.68125 213.3625,31.0125 208.06875,31.0125 Z M226.09375,32.5 L228.2375,32.5 L228.2375,23.35625 C228.2375,16.09375 232.74375,12.2 237.90625,12.2 L238.125,12.2 L238.125,9.8375 C233.70625,9.6625 229.9875,12.55 228.2375,16.53125 L228.2375,10.1875 L226.09375,10.1875 L226.09375,32.5 Z" id="for"></path>
                            <path d="M254.225,32.5 L256.5,32.5 L256.5,24.7125 L264.1125,17.0125 L276.7125,32.5 L279.6875,32.5 L265.73125,15.39375 L279.11875,1.875 L276.0125,1.875 L256.5,22 L256.5,1.875 L254.225,1.875 L254.225,32.5 Z M285.06875,4.36875 L287.7375,4.36875 L287.7375,1.4375 L285.06875,1.4375 L285.06875,4.36875 Z M285.33125,32.5 L287.475,32.5 L287.475,10.1875 L285.33125,10.1875 L285.33125,32.5 Z M305.325,33.025 C309.74375,33.025 312.5875,30.44375 314.5125,27.5125 L314.5125,32.5 L316.65625,32.5 L316.65625,0.5625 L314.5125,0.5625 L314.5125,15 C312.675,12.2 309.7875,9.6625 305.325,9.6625 C299.94375,9.6625 294.475,14.08125 294.475,21.34375 L294.475,21.43125 C294.475,28.69375 299.94375,33.025 305.325,33.025 Z M305.54375,30.96875 C300.8625,30.96875 296.79375,27.20625 296.79375,21.34375 L296.79375,21.25625 C296.79375,15.2625 300.6875,11.71875 305.54375,11.71875 C310.18125,11.71875 314.64375,15.56875 314.64375,21.3 L314.64375,21.3875 C314.64375,27.075 310.18125,30.96875 305.54375,30.96875 Z M332.0125,32.9375 C336.3,32.9375 339.7125,30.4 339.7125,26.41875 L339.7125,26.33125 C339.7125,22.39375 335.95,21.08125 332.3625,20.075 C329.16875,19.15625 326.15,18.2375 326.15,15.74375 L326.15,15.65625 C326.15,13.425 328.1625,11.7625 331.225,11.7625 C333.5875,11.7625 336.0375,12.6375 338.09375,13.99375 L339.23125,12.2 C337,10.7125 333.98125,9.75 331.3125,9.75 C326.98125,9.75 323.9625,12.33125 323.9625,15.91875 L323.9625,16.00625 C323.9625,19.9875 327.9875,21.08125 331.61875,22.13125 C334.725,23.00625 337.525,23.96875 337.525,26.59375 L337.525,26.68125 C337.525,29.2625 335.1625,30.925 332.14375,30.925 C329.3,30.925 326.5875,29.875 324.1375,27.99375 L322.86875,29.7 C325.23125,31.625 328.775,32.9375 332.0125,32.9375 Z" id="Kids"></path>
                        </g>
                    </g>
                </g>
            </g>
        </g>
    </g>
</svg>