<?xml version="1.0" encoding="UTF-8" standalone="no"?>
<svg width="35px" height="34px" viewBox="0 0 35 34" version="1.1" xmlns="http://www.w3.org/2000/svg" xmlns:xlink="http://www.w3.org/1999/xlink" xmlns:sketch="http://www.bohemiancoding.com/sketch/ns">
    <!-- Generator: Sketch 3.4.2 (15857) - http://www.bohemiancoding.com/sketch -->
    <title>github</title>
    <desc>Created with Sketch.</desc>
    <defs></defs>
    <g id="Page-1" stroke="none" stroke-width="1" fill="none" fill-rule="evenodd" sketch:type="MSPage">
        <g id="github" sketch:type="MSLayerGroup" fill="#181616">
            <path d="M17.3168286,0.127228571 C7.78911429,0.127228571 0.0631142857,7.85151429 0.0631142857,17.3809429 C0.0631142857,25.0038 5.00682857,31.4712286 11.8622571,33.7526571 C12.7245429,33.9123714 13.0411143,33.3783714 13.0411143,32.9226571 C13.0411143,32.5115143 13.0251143,31.1520857 13.0176857,29.7103714 C8.21768571,30.7540857 7.20482857,27.6746571 7.20482857,27.6746571 C6.41997143,25.6806571 5.28911429,25.1500857 5.28911429,25.1500857 C3.72368571,24.0792286 5.40711429,24.1012286 5.40711429,24.1012286 C7.13968571,24.2229429 8.05197143,25.8795143 8.05197143,25.8795143 C9.59082857,28.5169429 12.0882571,27.7543714 13.0728286,27.3135143 C13.2276857,26.1986571 13.6748286,25.4372286 14.1682571,25.0063714 C10.3359714,24.5703714 6.3074,23.0906571 6.3074,16.4795143 C6.3074,14.5960857 6.9814,13.0566571 8.08511429,11.8483714 C7.90597143,11.4138 7.3154,9.65894286 8.25225714,7.28237143 C8.25225714,7.28237143 9.7014,6.81894286 12.9982571,9.05122857 C14.3745429,8.66894286 15.8505429,8.47722857 17.3168286,8.47037143 C18.7831143,8.47722857 20.2602571,8.66894286 21.6391143,9.05122857 C24.9322571,6.81894286 26.3791143,7.28237143 26.3791143,7.28237143 C27.3182571,9.65894286 26.7276857,11.4138 26.5485429,11.8483714 C27.6548286,13.0566571 28.3239714,14.5960857 28.3239714,16.4795143 C28.3239714,23.1066571 24.2876857,24.5655143 20.4456857,24.9926571 C21.0645429,25.5280857 21.6159714,26.5780857 21.6159714,28.1878 C21.6159714,30.4963714 21.5962571,32.3543714 21.5962571,32.9226571 C21.5962571,33.3820857 21.9065429,33.9198 22.7811143,33.7506571 C29.6328286,31.4666571 34.5705429,25.0015143 34.5705429,17.3809429 C34.5705429,7.85151429 26.8456857,0.127228571 17.3168286,0.127228571" id="Fill-2" sketch:type="MSShapeGroup"></path>
            <path id="Fill-4" sketch:type="MSShapeGroup" d="M6.59808571,24.8995429 C6.56008571,24.9855429 6.42522857,25.0112571 6.30237143,24.9524 C6.17694286,24.8958286 6.10694286,24.7789714 6.14751429,24.6929714 C6.18465714,24.6049714 6.31951429,24.5804 6.44465714,24.6392571 C6.5698,24.6955429 6.64122857,24.8135429 6.59808571,24.8995429"></path>
            <path d="M7.29702857,25.6791429 C7.21474286,25.7554286 7.0536,25.72 6.94474286,25.5994286 C6.8316,25.4791429 6.81074286,25.318 6.89417143,25.2408571 C6.97902857,25.1645714 7.13502857,25.2002857 7.24788571,25.3205714 C7.36102857,25.4422857 7.38302857,25.6017143 7.29702857,25.6791429" id="Fill-6" sketch:type="MSShapeGroup"></path>
            <path d="M7.97725714,26.6727143 C7.87154286,26.7464286 7.6984,26.6775714 7.59154286,26.5238571 C7.48582857,26.3704286 7.48582857,26.1864286 7.59411429,26.1127143 C7.70097143,26.039 7.87154286,26.1055714 7.97982857,26.2575714 C8.08525714,26.4135714 8.08525714,26.5975714 7.97725714,26.6727143" id="Fill-8" sketch:type="MSShapeGroup"></path>
            <path d="M8.90917143,27.6328 C8.8146,27.7370857 8.61317143,27.7090857 8.46574286,27.5668 C8.31488571,27.4276571 8.27288571,27.2302286 8.36745714,27.1259429 C8.46345714,27.0213714 8.66602857,27.0508 8.8146,27.1919429 C8.96431429,27.3308 9.01002857,27.5296571 8.90917143,27.6328" id="Fill-10" sketch:type="MSShapeGroup"></path>
            <path d="M10.1948857,28.1902857 C10.1531714,28.3254286 9.95917143,28.3865714 9.76374286,28.3291429 C9.5686,28.27 9.44088571,28.112 9.48031429,27.9754286 C9.52088571,27.8391429 9.71574286,27.7754286 9.9126,27.8368571 C10.1074571,27.8957143 10.2354571,28.0528571 10.1948857,28.1902857" id="Fill-12" sketch:type="MSShapeGroup"></path>
            <path d="M11.607,28.2935143 C11.6118571,28.4358 11.4461429,28.5538 11.241,28.5563714 C11.0347143,28.5612286 10.8675714,28.4458 10.8652857,28.3058 C10.8652857,28.1620857 11.0275714,28.0455143 11.2335714,28.0418 C11.4387143,28.0378 11.607,28.1523714 11.607,28.2935143" id="Fill-14" sketch:type="MSShapeGroup"></path>
            <path d="M12.9208857,28.0700286 C12.9454571,28.2086 12.8028857,28.3511714 12.5991714,28.3891714 C12.3988857,28.4260286 12.2134571,28.3400286 12.1880286,28.2026 C12.1631714,28.0603143 12.3080286,27.9177429 12.5083143,27.8808857 C12.7123143,27.8454571 12.8948857,27.9288857 12.9208857,28.0700286" id="Fill-16" sketch:type="MSShapeGroup"></path>
        </g>
    </g>
</svg>