<?xml version="1.0" encoding="UTF-8" standalone="no"?>
<svg width="45px" height="45px" viewBox="0 0 45 45" version="1.1" xmlns="http://www.w3.org/2000/svg" xmlns:xlink="http://www.w3.org/1999/xlink" xmlns:sketch="http://www.bohemiancoding.com/sketch/ns">
    <!-- Generator: Sketch 3.4.2 (15857) - http://www.bohemiancoding.com/sketch -->
    <title>initials</title>
    <desc>Created with Sketch.</desc>
    <defs></defs>
    <g id="Page-1" stroke="none" stroke-width="1" fill="none" fill-rule="evenodd" sketch:type="MSPage">
        <g id="initials" sketch:type="MSLayerGroup">
            <g id="Page-1" sketch:type="MSShapeGroup">
                <g id="initials">
                    <circle id="Oval" fill="#111111" cx="22.5" cy="22.5" r="22.5"></circle>
                    <circle id="Oval" stroke="#FFFFFF" stroke-width="0.75" opacity="0.599999964" cx="22.5" cy="22.5" r="20.455"></circle>
                    <path d="M15.8978883,14 L23.1310408,29.7588879 L21.8620667,29.7588879 L19.3868294,24.348779 L11.7353581,24.348779 L9.26897412,29.7588879 L8,29.7588879 L15.2331525,14 L15.8978883,14 L15.8978883,14 L15.8978883,14 Z M18.9264574,23.3409775 L15.5548227,15.9713365 L12.1949923,23.3409775 L18.9264574,23.3409775 L18.9264574,23.3409775 L18.9264574,23.3409775 Z" id="Shape" fill="#FFFFFF"></path>
                    <path d="M35.3834235,15.3086474 L35.3834235,16.6504851 C33.5650675,15.6168433 31.7508602,15.1000224 29.9396163,15.1000224 C27.9967965,15.1000224 26.3799532,15.7454559 25.089679,17.03573 C23.7994048,18.3260042 23.1539714,19.9428475 23.1539714,21.8856674 C23.1539714,23.8284872 23.7916999,25.4429598 25.0677497,26.7296778 C26.3437994,28.0163959 28.0774016,28.6594586 30.2691489,28.6594586 C31.8528019,28.6594586 33.2568715,28.3441504 34.480765,27.7135341 L34.480765,23.567706 L31.23641,23.567706 L31.23641,22.5779229 L35.6791731,22.5779229 L35.6791731,28.461502 C33.8679292,29.3268213 32.0501659,29.7588883 30.2246976,29.7588883 C27.8415132,29.7588883 25.8536493,29.0038083 24.2587353,27.4936482 C22.664414,25.983488 21.8666607,24.099344 21.8666607,21.841216 C21.8666607,19.5979052 22.6490042,17.7303563 24.214284,16.2379767 C25.7813418,14.7461898 27.747869,14 30.1162363,14 C31.7289309,14 33.4844624,14.4362158 35.3834235,15.3086474 L35.3834235,15.3086474 L35.3834235,15.3086474 Z" id="Shape" fill="#FFFFFF"></path>
                </g>
            </g>
        </g>
    </g>
</svg>