<?xml version="1.0" encoding="UTF-8"?>
<svg width="180px" height="63px" viewBox="0 0 180 63" version="1.1" xmlns="http://www.w3.org/2000/svg" xmlns:xlink="http://www.w3.org/1999/xlink">
    <!-- Generator: Sketch 41.2 (35397) - http://www.bohemiancoding.com/sketch -->
    <title>logo</title>
    <desc>Created with Sketch.</desc>
    <defs></defs>
    <g id="Page-1" stroke="none" stroke-width="1" fill="none" fill-rule="evenodd">
        <g id="kindling" transform="translate(-485.000000, -90.000000)">
            <g id="logo" transform="translate(485.000000, 90.000000)">
                <path d="M11.3700812,6.3915571 L11.3856621,20.03115 C14.6299558,14.9007874 19.8789944,5.21412511 26.8315468,5.21412511 L28.0624394,5.21412511 L28.7324189,19.5691415 C25.0241601,19.4657068 22.7597332,21.7740251 20.9575402,23.9289153 C24.3074379,30.8469748 27.6919598,37.6960777 31.0366638,44.6193089 L18.0889198,44.6193089 C17.2665936,42.3144383 14.1642594,33.667295 12.9766471,32.2295523 L11.3700812,34.2310143 L11.3700812,44.6193089 L0.00812861731,44.6193089 L0.00812861731,6.3915571 L11.3700812,6.3915571" id="Fill-1" fill="#000000"></path>
                <polygon id="Fill-2" fill="#000000" points="32.7176718 16.7557169 42.7015787 16.7557169 42.7015787 44.6486154 32.7176718 44.6486154"></polygon>
                <path d="M98.612842,0.394066754 L88.8314871,3.92981056 L88.8886171,16.7039995 C87.3928489,16.1402803 85.8486066,15.7834305 84.2506968,15.7834305 C76.2680725,15.7834305 72.6186749,24.0409696 72.6186749,30.960753 C72.6186749,37.6753908 76.0153153,45.3605911 83.7867316,45.3605911 C86.4129822,45.3605911 89.2435158,44.6968849 91.2551856,43.007451 L98.612842,45.6777909 L98.612842,0.394066754 L98.612842,0.394066754 Z M88.7795507,35.6256592 C88.1632388,36.0859438 87.3928489,36.3428067 86.6241902,36.3428067 C83.9460033,36.3428067 83.1184833,33.981047 83.1184833,31.6796243 L83.1184833,30.0884534 C83.1184833,27.781859 83.5841797,24.7581171 86.5687913,24.7581171 C87.2872448,24.7581171 88.0628284,24.9098213 88.7795507,25.270119 L88.7795507,35.6256592 L88.7795507,35.6256592 Z" id="Fill-3" fill="#000000"></path>
                <polyline id="Fill-4" fill="#000000" points="110.800583 44.6486154 101.069434 44.6486154 101.069434 5.00036 110.800583 1.4801314 110.800583 44.6486154"></polyline>
                <polygon id="Fill-5" fill="#000000" points="113.5636 16.7557169 123.5527 16.7557169 123.5527 44.6486154 113.5636 44.6486154"></polygon>
                <path d="M55.4727389,44.6486154 L45.4628638,44.6486154 L45.4628638,15.3852067 L53.0317282,18.1434662 C56.0198023,16.7039995 57.2541573,15.6334501 60.7546705,15.6334501 C62.9186871,15.6334501 65.1311776,16.1971694 66.9333706,17.3746014 C70.8476438,19.9897761 70.897849,23.0686832 70.897849,27.3681201 L70.897849,44.6486154 L61.0576328,44.6486154 L61.0645577,27.6767003 C61.0645577,25.4218232 60.1366274,23.680672 57.6679173,23.680672 C56.8906025,23.680672 56.1219438,23.8306523 55.4536955,24.0909631 L55.4727389,44.6486154" id="Fill-6" fill="#000000"></path>
                <path d="M141.900098,27.6767003 C141.900098,25.4218232 140.970437,23.680672 138.499995,23.680672 C137.724412,23.680672 136.954022,23.8306523 136.282311,24.0909631 L136.285774,44.6486154 L126.294942,44.6486154 L126.294942,15.3852067 L133.865537,18.1434662 C136.85188,16.7039995 138.084504,15.6334501 141.585017,15.6334501 C143.752496,15.6334501 145.963256,16.1971694 147.76718,17.3746014 C151.677991,19.9897761 151.731658,23.0686832 151.731658,27.3681201 L151.731658,44.6486154 L141.903561,44.6486154 L141.900098,27.6767003" id="Fill-7" fill="#000000"></path>
                <path d="M179.689021,14.7439114 L171.277056,17.7883403 C169.834955,16.3971432 167.823285,15.7817065 165.809884,15.7817065 C157.138237,15.7817065 153.736403,23.4875938 153.736403,30.9935073 C153.736403,37.7736537 156.518463,45.636417 164.570336,45.636417 C166.485058,45.636417 168.598869,45.2295738 169.779556,43.634955 L169.763976,47.7137312 C169.763976,50.1272082 167.909846,52.1269462 165.799497,53.0526871 L169.209987,62.4549039 C176.74769,58.2985517 179.678634,55.0231186 179.678634,46.3346014 L179.689021,14.7439114 L179.689021,14.7439114 Z M169.577004,35.7721917 C169.012629,36.2359241 168.237045,36.4410697 167.457999,36.4410697 C164.518399,36.4410697 164.002498,33.7190124 164.002498,31.352081 C164.002498,28.781728 164.108102,24.6236519 167.670939,24.6236519 C168.337456,24.6236519 169.012629,24.7770801 169.577004,25.1856473 C169.577004,27.5508547 169.319054,29.8660687 169.319054,32.2778218 C169.319054,33.4104321 169.372721,34.5930358 169.577004,35.7721917 L169.577004,35.7721917 Z" id="Fill-8" fill="#000000"></path>
                <path d="M119.588222,0.506121043 L117.223384,5.20378163 L116.049622,3.14715445 C116.049622,3.14715445 113.984284,6.96734375 113.984284,9.75490969 C113.984284,12.2683736 116.03231,14.3077617 118.552956,14.3077617 C121.082259,14.3077617 123.126822,12.2683736 123.126822,9.75490969 C123.126822,5.20378163 119.588222,0.506121043 119.588222,0.506121043 L119.588222,0.506121043 Z M118.552956,12.1666628 C117.498647,12.1666628 116.636503,11.3116024 116.636503,10.258292 C116.636503,9.0894796 117.500379,7.48796522 117.500379,7.48796522 L118.000699,8.34992129 L118.98576,6.37604189 C118.98576,6.37604189 120.474603,8.34992129 120.474603,10.258292 C120.474603,11.3116024 119.61419,12.1666628 118.552956,12.1666628 L118.552956,12.1666628 Z" id="Fill-9" fill="#FF8800"></path>
                <path d="M33.7304316,10.356555 C33.7304316,8.16718661 35.51185,6.3915571 37.7104909,6.3915571 C39.9108629,6.3915571 41.697475,8.16718661 41.697475,10.356555 C41.697475,12.5459234 39.9108629,14.3232769 37.7104909,14.3232769 C35.51185,14.3232769 33.7304316,12.5459234 33.7304316,10.356555" id="Fill-10" fill="#000000"></path>
            </g>
        </g>
    </g>
</svg>