<?xml version="1.0" encoding="UTF-8"?>
<svg width="676px" height="100px" viewBox="0 0 676 100" version="1.1" xmlns="http://www.w3.org/2000/svg" xmlns:xlink="http://www.w3.org/1999/xlink">
    <!-- Generator: Sketch 41.2 (35397) - http://www.bohemiancoding.com/sketch -->
    <title>losherederos-audio-player</title>
    <desc>Created with Sketch.</desc>
    <defs></defs>
    <g id="Page-1" stroke="none" stroke-width="1" fill="none" fill-rule="evenodd">
        <g id="losherederos-audio-player">
            <rect id="Rectangle-7" fill="#EAE9E9" x="0" y="0" width="676" height="100"></rect>
            <g id="Group" transform="translate(23.000000, 21.000000)">
                <rect id="Rectangle-8" fill="#C9C9C9" x="64" y="42" width="396" height="10"></rect>
                <rect id="Rectangle-8-Copy-2" fill="#C9C9C9" x="538" y="42" width="80" height="10"></rect>
                <rect id="Rectangle-8-Copy-3" fill="#9B9B9B" x="538" y="42" width="30" height="10"></rect>
                <rect id="Rectangle-8-Copy" fill="#D6562B" x="64" y="42" width="196" height="10"></rect>
                <path d="M3.7924676,56.1037662 C2.8025151,56.5987424 2,56.1017876 2,55.0092049 L2,38.9907951 C2,37.8913093 2.8087945,37.4043972 3.7924676,37.8962338 L20.2075324,46.1037662 C21.1974849,46.5987424 21.1912055,47.4043972 20.2075324,47.8962338 L3.7924676,56.1037662 Z" id="Triangle" fill="#000000"></path>
                <text id="0:00" fill="#5A5A5A" font-family="OpenSans, Open Sans" font-size="14" font-weight="normal">
                    <tspan x="29" y="52">0:00</tspan>
                </text>
                <text id="8:35" fill="#5A5A5A" font-family="OpenSans, Open Sans" font-size="14" font-weight="normal">
                    <tspan x="470" y="52">8:35</tspan>
                </text>
                <path d="M517.997913,43 C516.894496,43 516,43.8958578 516,44.9973917 L516,50.0026083 C516,51.1057373 516.898261,52 517.997913,52 L522,52 L528.303406,55.9396286 C529.240409,56.5252556 530,56.1017876 530,55.0092049 L530,38.9907951 C530,37.8913093 529.290053,37.53246 528.400308,38.199769 L522,43 L517.997913,43 Z" id="volume" fill="#000000"></path>
                <text id="Carolina-commenting-on-bullerengue-style-of-music" fill="#000000" font-family="Oswald-Regular, Oswald" font-size="18" font-weight="normal">
                    <tspan x="0" y="21">Carolina commenting on bullerengue style of music</tspan>
                </text>
            </g>
        </g>
    </g>
</svg>