<?xml version="1.0" encoding="UTF-8"?>
<svg width="800px" height="120px" viewBox="0 0 800 120" version="1.1" xmlns="http://www.w3.org/2000/svg" xmlns:xlink="http://www.w3.org/1999/xlink">
    <!-- Generator: Sketch 41.2 (35397) - http://www.bohemiancoding.com/sketch -->
    <title>Group 7</title>
    <desc>Created with Sketch.</desc>
    <defs>
        <polygon id="path-1" points="0 38.9814915 199.737851 38.9814915 199.737851 0.330508475 0 0.330508475"></polygon>
    </defs>
    <g id="Page-1" stroke="none" stroke-width="1" fill="none" fill-rule="evenodd">
        <g id="los-herederos" transform="translate(-200.000000, -1040.000000)">
            <g id="navs" transform="translate(200.000000, 1040.000000)">
                <g id="Group-7">
                    <g id="nav-footer" transform="translate(0.000000, 78.000000)">
                        <g id="form" transform="translate(540.000000, 8.000000)">
                            <path d="M0,1.99161703 C0,0.891677316 0.894203228,0 1.99751941,0 L169.986039,0 L170,30 L1.99768347,30 C0.894393354,30 0,29.1021596 0,28.008383 L0,1.99161703 Z" id="Rectangle-19" fill="#FFFFFF"></path>
                            <path d="M170.038128,0 L257.996586,0 C259.103041,0 260,0.89784041 260,1.99161703 L260,28.008383 C260,29.1083227 259.108146,30 257.995763,30 L170.000777,30 C169.995276,30 170.020177,0 170.038128,0 Z" id="Rectangle-19-Copy" fill="#D6562B"></path>
                            <text id="SUBSCRIBE" font-family="Oswald-Regular, Oswald" font-size="10" font-weight="normal" fill="#FFFFFF">
                                <tspan x="192.133789" y="19">SUBSCRIBE</tspan>
                            </text>
                        </g>
                        <text id="ABOUT" font-family="Oswald-Regular, Oswald" font-size="14" font-weight="normal" fill="#FFFFFF">
                            <tspan x="58.1054688" y="27">ABOUT</tspan>
                        </text>
                        <text id="PROJECTS" font-family="Oswald-Regular, Oswald" font-size="14" font-weight="normal" fill="#FFFFFF">
                            <tspan x="119.385254" y="27">PROJECTS</tspan>
                        </text>
                        <text id="SERVICES" font-family="Oswald-Regular, Oswald" font-size="14" font-weight="normal" fill="#FFFFFF">
                            <tspan x="196.075684" y="27">SERVICES</tspan>
                        </text>
                        <text id="ABOUT" font-family="Oswald-Regular, Oswald" font-size="14" font-weight="normal" fill="#FFFFFF">
                            <tspan x="270.86084" y="27">CONTACT</tspan>
                        </text>
                        <path d="M475.24357,28.8642875 L475.85,26.214667 L475.24357,23.475742 C475.22692,23.3943841 475.07448,23.332325 474.88874,23.332325 C474.70078,23.332325 474.54834,23.3943841 474.53391,23.4764989 L474,26.214667 L474.53391,28.8642875 C474.54834,28.9464023 474.70078,29.0084614 474.88874,29.0084614 C475.07448,29.0084614 475.22692,28.9464023 475.24357,28.8642875 L475.24357,28.8642875 Z M479.03607,30.3351636 L479.55,26.2407773 L479.03607,19.9062091 C479.0209,19.7450068 478.8285,19.6186182 478.5954,19.6186182 C478.36045,19.6186182 478.16768,19.7450068 478.15584,19.9062091 L477.7,26.2407773 L478.15584,30.3351636 C478.16731,30.4948523 478.36045,30.6212409 478.5954,30.6212409 C478.82887,30.6212409 479.0209,30.4963659 479.03607,30.3351636 L479.03607,30.3351636 Z M482.8208,30.2678068 L483.25,26.2430477 L482.8208,17.8094443 C482.80933,17.6115364 482.58104,17.4560102 482.30132,17.4560102 C482.01938,17.4560102 481.79109,17.611158 481.7811,17.8094443 L481.4,26.2430477 L481.78073,30.2700773 C481.79072,30.4664716 482.01938,30.6212409 482.30095,30.6212409 C482.58067,30.6204841 482.80933,30.4660932 482.8208,30.2678068 L482.8208,30.2678068 Z M486.59813,30.2080182 L486.95,26.2434261 L486.59813,17.7485205 C486.58962,17.5135284 486.32914,17.3296216 486.00613,17.3296216 C485.6809,17.3296216 485.42079,17.5135284 485.41265,17.7485205 L485.1,26.2434261 L485.4145,30.2072614 C485.42116,30.439983 485.68127,30.6242682 486.0065,30.6242682 C486.32914,30.6242682 486.58925,30.4430102 486.59813,30.2080182 L486.59813,30.2080182 Z M490.37176,30.1576898 L490.65,26.2449398 L490.37176,16.5046898 C490.36584,16.2371545 490.0691,16.0199477 489.71057,16.0199477 C489.3513,16.0199477 489.0553,16.2379114 489.04938,16.5046898 L488.8,26.2422909 C488.8,26.2487239 489.04938,30.1584466 489.04938,30.1584466 C489.0553,30.4225761 489.3513,30.639783 489.71057,30.639783 C490.0691,30.639783 490.36584,30.425225 490.37176,30.1576898 L490.37176,30.1576898 Z M493.01467,30.6424318 C493.02688,30.6431886 506.14671,30.65 506.23218,30.65 C508.86584,30.65 511,28.5384773 511,25.9338875 C511,23.3285409 508.86584,21.2170182 506.23181,21.2170182 C505.57839,21.2170182 504.95568,21.3487045 504.38773,21.5836966 C504.00848,17.3341625 500.40431,14 496.00908,14 C494.93386,14 493.88454,14.2092602 492.9588,14.5630727 C492.59916,14.7015705 492.50296,14.842717 492.5,15.1181989 L492.5,30.0854136 C492.5037,30.3737614 492.72977,30.6144295 493.01467,30.6424318 L493.01467,30.6424318 Z" id="Shape" fill="#FFFFFF"></path>
                        <path d="M2.27373675e-13,42 L26.2781365,42 L26.2781365,0 L2.27373675e-13,0 L2.27373675e-13,42 Z M2.21272313,2.3341309 L23.943917,2.3341309 L24.0047981,32.9750601 L19.4347259,32.9750601 L19.4347259,6.88949234 L15.3595898,6.88949234 L15.3595898,19.0142296 L10.7657678,19.0142296 L10.7657678,6.88949234 L6.69089758,6.88949234 L6.69089758,19.3224459 L2.21272313,19.3224459 L2.21272313,2.3341309 Z M2.21272313,21.6442588 L6.69089758,21.6442588 L6.69089758,35.0926067 L10.7657678,35.0926067 L10.7657678,22.5564122 L15.3595898,22.5564122 L15.3595898,35.0926067 L24.0047981,35.0926067 L23.943917,39.6658691 L2.21272313,39.6658691 L2.21272313,21.6442588 Z" id="Page-1" fill="#FFFFFF"></path>
                        <path d="M451,13.8443333 C451,12.2745833 449.725417,11 448.155667,11 L430.844333,11 C429.274583,11 428,12.2745833 428,13.8443333 L428,31.1556667 C428,32.7254167 429.274583,34 430.844333,34 L448.155667,34 C449.725417,34 451,32.7254167 451,31.1556667 L451,13.8443333 Z M439.530667,17.6680833 C442.175667,17.6680833 444.322333,19.8128333 444.322333,22.45975 C444.322333,25.1066667 442.175667,27.2514167 439.530667,27.2514167 C436.88375,27.2514167 434.739,25.1066667 434.739,22.45975 C434.739,19.8128333 436.88375,17.6680833 439.530667,17.6680833 L439.530667,17.6680833 Z M449.083333,16.75 C449.083333,17.279 448.654,17.7083333 448.125,17.7083333 L445.25,17.7083333 C444.721,17.7083333 444.291667,17.279 444.291667,16.75 L444.291667,13.875 C444.291667,13.346 444.721,12.9166667 445.25,12.9166667 L448.125,12.9166667 C448.654,12.9166667 449.083333,13.346 449.083333,13.875 L449.083333,16.75 Z M448.184417,32.0833333 L430.934417,32.0833333 C430.407333,32.0833333 429.916667,31.5926667 429.916667,31.0655833 L429.916667,20.5833333 L433.0945,20.5833333 C432.914333,21.1813333 432.822333,21.8195833 432.822333,22.4750833 C432.822333,24.2671667 433.52,25.94425 434.786917,27.2111667 C436.053833,28.4780833 437.738583,29.1719167 439.530667,29.1719167 C441.32275,29.1719167 443.005583,28.4723333 444.2725,27.2054167 C445.541333,25.9385 446.239,24.2671667 446.239,22.4750833 C446.239,21.8215 446.145083,21.1813333 445.964917,20.5833333 L449.083333,20.5833333 L449.083333,31.0655833 C449.083333,31.5926667 448.713417,32.0833333 448.184417,32.0833333 L448.184417,32.0833333 Z" id="Fill-1" fill="#FFFFFF"></path>
                        <path d="M411,15.207145 C410.153747,15.5815062 409.244398,15.8346049 408.289787,15.9483147 C409.264084,15.3658352 410.012327,14.4433172 410.364574,13.3442344 C409.45287,13.8836636 408.442986,14.2753121 407.368155,14.4864514 C406.507433,13.571654 405.281001,13 403.923918,13 C401.317773,13 399.205044,15.1075335 399.205044,17.7068305 C399.205044,18.0758209 399.246772,18.4349928 399.327199,18.7794789 C395.405531,18.5831932 391.928567,16.7092892 389.601225,13.861593 C389.194967,14.5567753 388.96235,15.3653317 388.96235,16.2279317 C388.96235,17.8609052 389.795395,19.3016209 391.061535,20.1457588 C390.288054,20.1213385 389.560423,19.9095278 388.92424,19.5569854 C388.923904,19.5766224 388.923819,19.5963433 388.923819,19.6161481 C388.923819,21.8967219 390.550368,23.7991582 392.709031,24.2315911 C392.313036,24.3390909 391.896178,24.3965752 391.465858,24.3965752 C391.161732,24.3965752 390.866187,24.3671198 390.578046,24.312237 C391.178558,26.1821967 392.92112,27.5431058 394.98598,27.581121 C393.371041,28.8435096 391.336468,29.5959244 389.125645,29.5959244 C388.744793,29.5959244 388.369158,29.5736859 388,29.5302161 C390.088332,30.8656978 392.56862,31.6448827 395.233403,31.6448827 C403.912897,31.6448827 408.659113,24.4726895 408.659113,18.2526375 C408.659113,18.0485473 408.654486,17.845548 408.645484,17.6437236 C409.567369,16.9800948 410.367351,16.1510622 411,15.207145" id="Fill-1" fill="#FFFFFF"></path>
                        <path d="M369.730615,33.0001724 C370.431577,33.0001724 371,32.4317498 371,31.7307872 L371,11.2694713 C371,10.5682502 370.431577,10 369.730615,10 L349.269385,10 C348.568164,10 348,10.5682502 348,11.2694713 L348,31.7307872 C348,32.4317498 348.568164,33.0001724 349.269385,33.0001724 L369.730615,33.0001724 Z M363.86958,33.0001724 L363.86958,24.0933633 L366.859314,24.0933633 L367.306917,20.6221594 L363.86958,20.6221594 L363.86958,18.4059492 C363.86958,17.4009547 364.148621,16.7161072 365.589843,16.7161072 L367.427995,16.7152454 L367.427995,13.610638 C367.110003,13.5684113 366.018917,13.4738753 364.749532,13.4738753 C362.099335,13.4738753 360.285054,15.0915011 360.285054,18.0622759 L360.285054,20.6221594 L357.287737,20.6221594 L357.287737,24.0933633 L360.285054,24.0933633 L360.285054,33.0001724 L363.86958,33.0001724 Z" id="Combined-Shape" fill="#FFFFFF"></path>
                    </g>
                    <g id="nav-header">
                        <g id="logo">
                            <path d="M27.113719,23.9385305 C27.113719,24.5007254 27.2694215,24.9148525 27.5808264,25.1802508 C27.8919008,25.4463102 28.2604959,25.5788441 28.6856198,25.5788441 C29.1110744,25.5788441 29.4796694,25.4463102 29.7910744,25.1802508 C30.1021488,24.9148525 30.2581818,24.5007254 30.2581818,23.9385305 L30.2581818,15.3727424 C30.2581818,14.8112085 30.1021488,14.3974119 29.7910744,14.1313525 C29.4796694,13.8656237 29.1110744,13.7327593 28.6856198,13.7327593 C28.2604959,13.7327593 27.8919008,13.8656237 27.5808264,14.1313525 C27.2694215,14.3974119 27.113719,14.8112085 27.113719,15.3727424 L27.113719,23.9385305 L27.113719,23.9385305 Z M24.7897521,15.3727424 C24.7897521,14.7199881 24.9031405,14.1425898 25.1312397,13.6418695 C25.3593388,13.1401576 25.658843,12.7266915 26.031405,12.3998186 C26.4033058,12.0736068 26.821157,11.8267169 27.2846281,11.6598102 C27.747438,11.4929034 28.214876,11.4092847 28.6856198,11.4092847 C29.1563636,11.4092847 29.6234711,11.4929034 30.0872727,11.6598102 C30.5504132,11.8267169 30.9682645,12.0736068 31.3404959,12.3998186 C31.7127273,12.7266915 32.012562,13.1401576 32.2406612,13.6418695 C32.4680992,14.1425898 32.5821488,14.7199881 32.5821488,15.3727424 L32.5821488,23.9385305 C32.5821488,24.6068186 32.4680992,25.1881831 32.2406612,25.6813017 C32.012562,26.1754119 31.7127273,26.5852424 31.3404959,26.9114542 C30.9682645,27.2383271 30.5504132,27.4848864 30.0872727,27.6517932 C29.6234711,27.8187 29.1563636,27.9023186 28.6856198,27.9023186 C28.214876,27.9023186 27.747438,27.8187 27.2846281,27.6517932 C26.821157,27.4848864 26.4033058,27.2383271 26.031405,26.9114542 C25.658843,26.5852424 25.3593388,26.1754119 25.1312397,25.6813017 C24.9031405,25.1881831 24.7897521,24.6068186 24.7897521,23.9385305 L24.7897521,15.3727424 L24.7897521,15.3727424 Z" id="Fill-2" fill="#FFFFFF"></path>
                            <path d="M47.6894876,16.2157703 L45.3655207,16.2157703 L45.3655207,15.6919144 C45.3655207,15.1604568 45.2402314,14.70105 44.9889917,14.3133636 C44.7384132,13.9263381 44.3172562,13.7326602 43.7245289,13.7326602 C43.4055207,13.7326602 43.1437025,13.7934737 42.9384132,13.9147703 C42.7334545,14.0363975 42.5737851,14.1920669 42.4600661,14.3817788 C42.3460165,14.5718212 42.2663471,14.7919398 42.2207273,15.0424653 C42.1751074,15.2929907 42.1526281,15.5554144 42.1526281,15.8284144 C42.1526281,16.1473551 42.1638678,16.4173805 42.1866777,16.6368381 C42.2094876,16.8576178 42.2663471,17.0473297 42.3575868,17.2066347 C42.4484959,17.3659398 42.5813884,17.5070669 42.756595,17.6283636 C42.9308099,17.7503212 43.1701488,17.8716178 43.4739504,17.9929144 L45.2514711,18.6988805 C45.7678347,18.8965246 46.185686,19.128211 46.5046942,19.3936093 C46.8237025,19.6599992 47.070314,19.9710076 47.2451901,20.3276263 C47.419405,20.6849059 47.5374215,21.0950669 47.5985785,21.5577788 C47.6587438,22.0214822 47.6894876,22.5489737 47.6894876,23.1412449 C47.6894876,23.8244059 47.6210579,24.4589822 47.4845289,25.0436517 C47.3473388,25.6283212 47.1235372,26.1297025 46.8121322,26.5471347 C46.5007273,26.9645669 46.0861818,27.2950754 45.5704793,27.5379992 C45.0537851,27.7805924 44.4233719,27.9022195 43.6789091,27.9022195 C43.116595,27.9022195 42.5929587,27.803728 42.1070083,27.6064144 C41.6207273,27.4091008 41.202876,27.1397364 40.8537851,26.7976602 C40.5040331,26.4559144 40.2270083,26.05005 40.0220496,25.5787449 C39.8167603,25.1084314 39.714281,24.5991178 39.714281,24.0527873 L39.714281,23.1868551 L42.0385785,23.1868551 L42.0385785,23.9156263 C42.0385785,24.3413212 42.1638678,24.7243805 42.4144463,25.0664568 C42.6650248,25.407872 43.086843,25.5787449 43.6789091,25.5787449 C44.0739504,25.5787449 44.381719,25.5218975 44.6018843,25.407872 C44.821719,25.2941771 44.9889917,25.1345415 45.1030413,24.9292958 C45.2170909,24.7243805 45.289157,24.47055 45.3199008,24.1664822 C45.3499835,23.8630754 45.3655207,23.5286008 45.3655207,23.16405 C45.3655207,22.7390161 45.3499835,22.3896686 45.3199008,22.1163381 C45.289157,21.8423466 45.2243636,21.6225585 45.1261818,21.4556517 C45.0266777,21.2887449 44.8901488,21.1519144 44.7159339,21.0454907 C44.5410579,20.9393975 44.3093223,20.825372 44.0210579,20.7034144 L42.3575868,20.0202534 C41.3549421,19.6100924 40.682876,19.0673975 40.3410579,18.3911771 C39.9992397,17.7159483 39.828,16.8691856 39.828,15.8512195 C39.828,15.2440754 39.9119669,14.6666771 40.0792397,14.1196856 C40.2458512,13.5733551 40.4924628,13.1023805 40.819405,12.7077534 C41.1460165,12.3127958 41.5599008,11.9974907 42.0610579,11.7618381 C42.5625455,11.5265161 43.1470083,11.4091856 43.8160992,11.4091856 C44.3929587,11.4091856 44.9208926,11.5152788 45.3995702,11.7277958 C45.8779174,11.9406432 46.2881653,12.2219059 46.6299835,12.5709229 C46.9714711,12.9202703 47.2339504,13.3109314 47.4160992,13.7438975 C47.5985785,14.1768636 47.6894876,14.6213975 47.6894876,15.0768381 L47.6894876,16.2157703 Z" id="Fill-4" fill="#FFFFFF"></path>
                            <polygon id="Fill-6" fill="#FFFFFF" points="64.7330248 11.5457517 67.0569917 11.5457517 67.0569917 18.4937008 69.9283967 18.4937008 69.9283967 11.5457517 72.2523636 11.5457517 72.2523636 27.7657856 69.9283967 27.7657856 69.9283967 20.5441754 67.0569917 20.5441754 67.0569917 27.7657856 64.7330248 27.7657856"></polygon>
                            <polygon id="Fill-8" fill="#FFFFFF" points="78.837157 11.5457517 85.7640992 11.5457517 85.7640992 13.7327263 81.161124 13.7327263 81.161124 18.4937008 85.1717025 18.4937008 85.1717025 20.6810059 81.161124 20.6810059 81.161124 25.442311 85.7640992 25.442311 85.7640992 27.7657856 78.837157 27.7657856"></polygon>
                            <path d="M95.812562,18.7901339 L97.1345455,18.7901339 C97.5444628,18.7901339 97.8710744,18.7332864 98.1140496,18.6189305 C98.3570248,18.5052356 98.5431405,18.3422949 98.6720661,18.1294475 C98.8013223,17.9169305 98.8889256,17.6548373 98.9342149,17.3434983 C98.9798347,17.0324898 99.0026446,16.6715746 99.0026446,16.2614136 C99.0026446,15.8512525 98.9798347,15.4909983 98.9342149,15.1789983 C98.8889256,14.8683203 98.793719,14.602261 98.6495868,14.3818119 C98.5047934,14.1616932 98.3038017,13.998422 98.0456198,13.8923288 C97.787438,13.7859051 97.4452893,13.7326932 97.0204959,13.7326932 L95.812562,13.7326932 L95.812562,18.7901339 Z M93.488595,11.5457186 L97.2254545,11.5457186 C99.9596694,11.5457186 101.326942,13.1328203 101.326942,16.3066932 C101.326942,17.2486424 101.178512,18.0573966 100.882645,18.7332864 C100.586116,19.4088458 100.065785,19.9522017 99.3216529,20.3620322 L101.828099,27.7657525 L99.3669421,27.7657525 L97.2026446,20.8406085 L95.812562,20.8406085 L95.812562,27.7657525 L93.488595,27.7657525 L93.488595,11.5457186 Z" id="Fill-10" fill="#FFFFFF"></path>
                            <polygon id="Fill-12" fill="#FFFFFF" points="108.732397 11.5457517 115.659339 11.5457517 115.659339 13.7327263 111.056694 13.7327263 111.056694 18.4937008 115.066942 18.4937008 115.066942 20.6810059 111.056694 20.6810059 111.056694 25.442311 115.659339 25.442311 115.659339 27.7657856 108.732397 27.7657856"></polygon>
                            <path d="M125.024198,25.578778 L126.094942,25.578778 C126.748165,25.578778 127.211636,25.4158373 127.485025,25.0889644 C127.758413,24.762422 127.895603,24.2498034 127.895603,23.5511085 L127.895603,15.7375576 C127.895603,15.0993458 127.766017,14.6062271 127.507835,14.2565492 C127.249322,13.9075322 126.778579,13.7326932 126.094942,13.7326932 L125.024198,13.7326932 L125.024198,25.578778 Z M122.700231,11.5457186 L126.140893,11.5457186 C127.462215,11.5457186 128.472463,11.9139051 129.171306,12.6506085 C129.869488,13.3873119 130.21957,14.4165153 130.21957,15.7375576 L130.21957,23.3237186 C130.21957,24.8420746 129.850975,25.9628288 129.114446,26.6836678 C128.377587,27.4051678 127.317752,27.7657525 125.935273,27.7657525 L122.700231,27.7657525 L122.700231,11.5457186 Z" id="Fill-14" fill="#FFFFFF"></path>
                            <polygon id="Fill-16" fill="#FFFFFF" points="137.943901 11.5457517 144.870843 11.5457517 144.870843 13.7327263 140.267868 13.7327263 140.267868 18.4937008 144.278446 18.4937008 144.278446 20.6810059 140.267868 20.6810059 140.267868 25.442311 144.870843 25.442311 144.870843 27.7657856 137.943901 27.7657856"></polygon>
                            <path d="M154.235702,18.7901339 L155.557686,18.7901339 C155.967603,18.7901339 156.294215,18.7332864 156.53719,18.6189305 C156.780165,18.5052356 156.96595,18.3422949 157.095207,18.1294475 C157.224463,17.9169305 157.312066,17.6548373 157.357355,17.3434983 C157.402975,17.0324898 157.425785,16.6715746 157.425785,16.2614136 C157.425785,15.8512525 157.402975,15.4909983 157.357355,15.1789983 C157.312066,14.8683203 157.216529,14.602261 157.072727,14.3818119 C156.927934,14.1616932 156.726942,13.998422 156.46876,13.8923288 C156.210248,13.7859051 155.86843,13.7326932 155.443636,13.7326932 L154.235702,13.7326932 L154.235702,18.7901339 Z M151.911405,11.5457186 L155.648595,11.5457186 C158.382479,11.5457186 159.750083,13.1328203 159.750083,16.3066932 C159.750083,17.2486424 159.601653,18.0573966 159.305455,18.7332864 C159.009256,19.4088458 158.488926,19.9522017 157.744793,20.3620322 L160.25124,27.7657525 L157.790083,27.7657525 L155.625785,20.8406085 L154.235702,20.8406085 L154.235702,27.7657525 L151.911405,27.7657525 L151.911405,11.5457186 Z" id="Fill-18" fill="#FFFFFF"></path>
                            <path d="M168.203769,23.9385305 C168.203769,24.5007254 168.359471,24.9148525 168.670545,25.1802508 C168.98195,25.4463102 169.350545,25.5788441 169.775669,25.5788441 C170.201124,25.5788441 170.569388,25.4463102 170.881124,25.1802508 C171.191868,24.9148525 171.347901,24.5007254 171.347901,23.9385305 L171.347901,15.3727424 C171.347901,14.8112085 171.191868,14.3974119 170.881124,14.1313525 C170.569388,13.8656237 170.201124,13.7327593 169.775669,13.7327593 C169.350545,13.7327593 168.98195,13.8656237 168.670545,14.1313525 C168.359471,14.3974119 168.203769,14.8112085 168.203769,15.3727424 L168.203769,23.9385305 Z M165.879471,15.3727424 C165.879471,14.7199881 165.99319,14.1425898 166.221289,13.6418695 C166.449058,13.1401576 166.748893,12.7266915 167.121455,12.3998186 C167.493355,12.0736068 167.911207,11.8267169 168.374678,11.6598102 C168.837488,11.4929034 169.304926,11.4092847 169.775669,11.4092847 C170.246413,11.4092847 170.713521,11.4929034 171.177322,11.6598102 C171.640463,11.8267169 172.057983,12.0736068 172.430545,12.3998186 C172.802446,12.7266915 173.102281,13.1401576 173.33038,13.6418695 C173.558149,14.1425898 173.672198,14.7199881 173.672198,15.3727424 L173.672198,23.9385305 C173.672198,24.6068186 173.558149,25.1881831 173.33038,25.6813017 C173.102281,26.1754119 172.802446,26.5852424 172.430545,26.9114542 C172.057983,27.2383271 171.640463,27.4848864 171.177322,27.6517932 C170.713521,27.8187 170.246413,27.9023186 169.775669,27.9023186 C169.304926,27.9023186 168.837488,27.8187 168.374678,27.6517932 C167.911207,27.4848864 167.493355,27.2383271 167.121455,26.9114542 C166.748893,26.5852424 166.449058,26.1754119 166.221289,25.6813017 C165.99319,25.1881831 165.879471,24.6068186 165.879471,23.9385305 L165.879471,15.3727424 Z" id="Fill-20" fill="#FFFFFF"></path>
                            <path d="M188.779041,16.2157703 L186.455074,16.2157703 L186.455074,15.6919144 C186.455074,15.1604568 186.329785,14.70105 186.078545,14.3133636 C185.827967,13.9263381 185.40681,13.7326602 184.814083,13.7326602 C184.495074,13.7326602 184.233256,13.7934737 184.027967,13.9147703 C183.823008,14.0363975 183.663339,14.1920669 183.54962,14.3817788 C183.43557,14.5718212 183.355901,14.7919398 183.310281,15.0424653 C183.264661,15.2929907 183.242182,15.5554144 183.242182,15.8284144 C183.242182,16.1473551 183.253421,16.4173805 183.275901,16.6368381 C183.299041,16.8576178 183.355901,17.0473297 183.44714,17.2066347 C183.53805,17.3659398 183.670942,17.5070669 183.846149,17.6283636 C184.020364,17.7503212 184.259702,17.8716178 184.563504,17.9929144 L186.341025,18.6988805 C186.857388,18.8965246 187.27524,19.128211 187.594248,19.3936093 C187.913256,19.6599992 188.159868,19.9710076 188.334744,20.3276263 C188.508959,20.6849059 188.626975,21.0950669 188.688132,21.5577788 C188.748298,22.0214822 188.779041,22.5489737 188.779041,23.1412449 C188.779041,23.8244059 188.710612,24.4589822 188.574083,25.0436517 C188.437223,25.6283212 188.213091,26.1297025 187.901686,26.5471347 C187.590281,26.9645669 187.175736,27.2950754 186.660033,27.5379992 C186.143339,27.7805924 185.512926,27.9022195 184.768463,27.9022195 C184.206149,27.9022195 183.682512,27.803728 183.196562,27.6064144 C182.710281,27.4091008 182.29243,27.1397364 181.943339,26.7976602 C181.593587,26.4559144 181.316562,26.05005 181.111603,25.5787449 C180.906314,25.1084314 180.803835,24.5991178 180.803835,24.0527873 L180.803835,23.1868551 L183.128132,23.1868551 L183.128132,23.9156263 C183.128132,24.3413212 183.253421,24.7243805 183.504,25.0664568 C183.754579,25.407872 184.176397,25.5787449 184.768463,25.5787449 C185.163504,25.5787449 185.471273,25.5218975 185.691438,25.407872 C185.911273,25.2941771 186.078545,25.1345415 186.192595,24.9292958 C186.306645,24.7243805 186.378711,24.47055 186.409455,24.1664822 C186.439537,23.8630754 186.455074,23.5286008 186.455074,23.16405 C186.455074,22.7390161 186.439537,22.3896686 186.409455,22.1163381 C186.378711,21.8423466 186.313917,21.6225585 186.215736,21.4556517 C186.116231,21.2887449 185.979702,21.1519144 185.805488,21.0454907 C185.630612,20.9393975 185.398876,20.825372 185.110612,20.7034144 L183.44714,20.0202534 C182.444496,19.6100924 181.77243,19.0673975 181.430612,18.3911771 C181.088793,17.7159483 180.917554,16.8691856 180.917554,15.8512195 C180.917554,15.2440754 181.001521,14.6666771 181.168793,14.1196856 C181.335405,13.5733551 181.582017,13.1023805 181.908959,12.7077534 C182.23557,12.3127958 182.649455,11.9974907 183.150612,11.7618381 C183.652099,11.5265161 184.236562,11.4091856 184.905653,11.4091856 C185.482512,11.4091856 186.010446,11.5152788 186.489124,11.7277958 C186.967471,11.9406432 187.377719,12.2219059 187.719537,12.5709229 C188.061025,12.9202703 188.323504,13.3109314 188.505653,13.7438975 C188.688132,14.1768636 188.779041,14.6213975 188.779041,15.0768381 L188.779041,16.2157703 Z" id="Fill-22" fill="#FFFFFF"></path>
                            <mask id="mask-2" fill="white">
                                <use xlink:href="#path-1"></use>
                            </mask>
                            <g id="Clip-25"></g>
                            <path d="M3.98446281,34.9978729 L195.753719,34.9978729 L195.753719,4.31379661 L3.98446281,4.31379661 L3.98446281,34.9978729 Z M0,38.9814915 L199.737851,38.9814915 L199.737851,0.330508475 L0,0.330508475 L0,38.9814915 Z" id="Fill-24" fill="#FFFFFF" mask="url(#mask-2)"></path>
                            <polygon id="Fill-26" fill="#FFFFFF" mask="url(#mask-2)" points="0.895206612 21.0114153 45.3299174 21.0114153 45.3299174 19.0197712 0.895206612 19.0197712"></polygon>
                            <polygon id="Fill-27" fill="#FFFFFF" mask="url(#mask-2)" points="57.1970248 20.6756186 123.663802 20.6756186 123.663802 18.4916186 57.1970248 18.4916186"></polygon>
                            <polygon id="Fill-28" fill="#FFFFFF" mask="url(#mask-2)" points="129.694545 20.748 167.093223 20.748 167.093223 18.4598898 129.694545 18.4598898"></polygon>
                            <polygon id="Fill-29" fill="#FFFFFF" mask="url(#mask-2)" points="171.578182 20.6210847 184.890248 20.6210847 184.890248 18.6294407 171.578182 18.6294407"></polygon>
                            <polygon id="Fill-30" fill="#FFFFFF" mask="url(#mask-2)" points="183.894215 38.0963898 185.886281 38.0963898 185.886281 26.2813729 183.894215 26.2813729"></polygon>
                            <polygon id="Fill-31" fill="#FFFFFF" mask="url(#mask-2)" points="57.1973554 20.3312288 59.1894215 20.3312288 59.1894215 1.49687288 57.1973554 1.49687288"></polygon>
                            <polygon id="Fill-1" fill="#FFFFFF" mask="url(#mask-2)" points="10.9584793 11.5457517 13.2827769 11.5457517 13.2827769 25.442311 17.8854215 25.442311 17.8854215 27.7657856 10.9584793 27.7657856"></polygon>
                        </g>
                        <text id="ABOUT" font-family="Oswald-Regular, Oswald" font-size="17" font-weight="normal" fill="#FFFFFF">
                            <tspan x="395.056641" y="27">ABOUT</tspan>
                        </text>
                        <text id="PROJECTS" font-family="Oswald-Regular, Oswald" font-size="17" font-weight="normal" fill="#FFFFFF">
                            <tspan x="471.074951" y="27">PROJECTS</tspan>
                        </text>
                        <text id="SERVICES" font-family="Oswald-Regular, Oswald" font-size="17" font-weight="normal" fill="#FFFFFF">
                            <tspan x="566.41333" y="27">SERVICES</tspan>
                        </text>
                        <text id="JOURNAL" font-family="Oswald-Regular, Oswald" font-size="17" font-weight="normal" fill="#FFFFFF">
                            <tspan x="656.071533" y="27">JOURNAL</tspan>
                        </text>
                        <text id="CONTACT" font-family="Oswald-Regular, Oswald" font-size="17" font-weight="normal" fill="#FFFFFF">
                            <tspan x="738.473877" y="27">CONTACT</tspan>
                        </text>
                    </g>
                </g>
            </g>
        </g>
    </g>
</svg>