<?xml version="1.0" encoding="UTF-8"?>
<svg width="308px" height="60px" viewBox="0 0 308 60" version="1.1" xmlns="http://www.w3.org/2000/svg" xmlns:xlink="http://www.w3.org/1999/xlink">
    <!-- Generator: Sketch 41.2 (35397) - http://www.bohemiancoding.com/sketch -->
    <title>logo</title>
    <desc>Created with Sketch.</desc>
    <defs>
        <polygon id="path-1" points="0 59.9715254 307.289002 59.9715254 307.289002 0.508474576 0 0.508474576"></polygon>
    </defs>
    <g id="Page-1" stroke="none" stroke-width="1" fill="none" fill-rule="evenodd">
        <g id="los-herederos" transform="translate(-446.000000, -100.000000)">
            <g id="logo" transform="translate(446.000000, 100.000000)">
                <path d="M41.7134139,36.8285085 C41.7134139,37.6934237 41.9529561,38.3305424 42.4320407,38.7388475 C42.9106167,39.1481695 43.477686,39.3520678 44.1317228,39.3520678 C44.7862683,39.3520678 45.3533376,39.1481695 45.8324221,38.7388475 C46.3109981,38.3305424 46.551049,37.6934237 46.551049,36.8285085 L46.551049,23.6503729 C46.551049,22.7864746 46.3109981,22.1498644 45.8324221,21.7405424 C45.3533376,21.3317288 44.7862683,21.127322 44.1317228,21.127322 C43.477686,21.127322 42.9106167,21.3317288 42.4320407,21.7405424 C41.9529561,22.1498644 41.7134139,22.7864746 41.7134139,23.6503729 L41.7134139,36.8285085 L41.7134139,36.8285085 Z M38.1380801,23.6503729 C38.1380801,22.6461356 38.3125238,21.7578305 38.6634456,20.9874915 C39.0143675,20.2156271 39.475143,19.5795254 40.0483153,19.0766441 C40.6204704,18.5747797 41.2633185,18.1949492 41.9763509,17.9381695 C42.6883662,17.6813898 43.4075016,17.5527458 44.1317228,17.5527458 C44.8559441,17.5527458 45.5745709,17.6813898 46.2881119,17.9381695 C47.0006357,18.1949492 47.6434838,18.5747797 48.2161475,19.0766441 C48.7888112,19.5795254 49.2500954,20.2156271 49.6010172,20.9874915 C49.9509218,21.7578305 50.1263827,22.6461356 50.1263827,23.6503729 L50.1263827,36.8285085 C50.1263827,37.8566441 49.9509218,38.7510508 49.6010172,39.5096949 C49.2500954,40.2698644 48.7888112,40.9003729 48.2161475,41.4022373 C47.6434838,41.9051186 47.0006357,42.2844407 46.2881119,42.5412203 C45.5745709,42.798 44.8559441,42.9266441 44.1317228,42.9266441 C43.4075016,42.9266441 42.6883662,42.798 41.9763509,42.5412203 C41.2633185,42.2844407 40.6204704,41.9051186 40.0483153,41.4022373 C39.475143,40.9003729 39.0143675,40.2698644 38.6634456,39.5096949 C38.3125238,38.7510508 38.1380801,37.8566441 38.1380801,36.8285085 L38.1380801,23.6503729 L38.1380801,23.6503729 Z" id="Fill-2" fill="#FFFFFF"></path>
                <path d="M73.3684425,24.947339 L69.7931087,24.947339 L69.7931087,24.1414068 C69.7931087,23.3237797 69.600356,22.617 69.2138334,22.0205593 C68.828328,21.4251356 68.1803942,21.1271695 67.268506,21.1271695 C66.7777241,21.1271695 66.3749269,21.2207288 66.0590973,21.407339 C65.7437762,21.5944576 65.498131,21.8339492 65.3231786,22.1258136 C65.1477177,22.4181864 65.0251494,22.7568305 64.954965,23.1422542 C64.8847807,23.527678 64.8501971,23.9314068 64.8501971,24.3514068 C64.8501971,24.8420847 64.8674889,25.2575085 64.9025811,25.5951356 C64.9376732,25.9347966 65.0251494,26.226661 65.1655181,26.4717458 C65.3053783,26.7168305 65.5098284,26.9339492 65.779377,27.1205593 C66.0473999,27.3081864 66.4156135,27.4947966 66.8830006,27.6814068 L69.6176478,28.7675085 C70.4120534,29.0715763 71.0549015,29.4280169 71.5456834,29.836322 C72.0364654,30.2461525 72.4158678,30.7246271 72.6849078,31.2732712 C72.9529307,31.8229322 73.1344946,32.4539492 73.2285823,33.1658136 C73.3211443,33.8792034 73.3684425,34.6907288 73.3684425,35.6019153 C73.3684425,36.6529322 73.2631659,37.6292034 73.0531214,38.5286949 C72.8420598,39.4281864 72.4977495,40.1995424 72.018665,40.8417458 C71.5395804,41.4839492 70.9018182,41.9924237 70.1084298,42.3661525 C69.3135156,42.7393729 68.3436491,42.9264915 67.1983217,42.9264915 C66.3332231,42.9264915 65.5276287,42.7749661 64.7800127,42.4714068 C64.0318881,42.1678475 63.3890401,41.7534407 62.8519771,41.2271695 C62.313897,40.7014068 61.887705,40.077 61.572384,39.3519153 C61.2565544,38.6283559 61.0988938,37.8447966 61.0988938,37.0042881 L61.0988938,35.6720847 L64.6747362,35.6720847 L64.6747362,36.7932712 C64.6747362,37.4481864 64.8674889,38.0375085 65.2529943,38.5637797 C65.6384997,39.0890339 66.2874507,39.3519153 67.1983217,39.3519153 C67.8060776,39.3519153 68.2795677,39.2644576 68.6182835,39.0890339 C68.9564908,38.9141186 69.2138334,38.6685254 69.3892943,38.3527627 C69.5647552,38.0375085 69.6756262,37.647 69.7229243,37.1792034 C69.7692053,36.7124237 69.7931087,36.1978475 69.7931087,35.637 C69.7931087,34.9831017 69.7692053,34.4456441 69.7229243,34.0251356 C69.6756262,33.6036102 69.5759441,33.2654746 69.4248951,33.0086949 C69.2718118,32.7519153 69.0617673,32.5414068 68.7937444,32.377678 C68.5247044,32.2144576 68.1681882,32.0390339 67.7247044,31.8514068 L65.1655181,30.8003898 C63.6229879,30.1693729 62.5890401,29.3344576 62.0631659,28.2941186 C61.5372918,27.2553051 61.2738462,25.9525932 61.2738462,24.3864915 C61.2738462,23.4524237 61.4030261,22.5641186 61.6603687,21.7225932 C61.9166942,20.8820847 62.2960966,20.1575085 62.7990846,19.5503898 C63.3015639,18.9427627 63.938309,18.457678 64.7093198,18.0951356 C65.4808392,17.7331017 66.3800127,17.5525932 67.4093833,17.5525932 C68.2968595,17.5525932 69.1090655,17.7158136 69.8454927,18.0427627 C70.5814113,18.3702203 71.212562,18.8029322 71.7384361,19.3398814 C72.2638017,19.877339 72.667616,20.4783559 72.9478449,21.1444576 C73.2285823,21.8105593 73.3684425,22.4944576 73.3684425,23.1951356 L73.3684425,24.947339 Z" id="Fill-4" fill="#FFFFFF"></path>
                <polygon id="Fill-6" fill="#FFFFFF" points="99.5892689 17.7626949 103.164603 17.7626949 103.164603 28.4518475 107.582149 28.4518475 107.582149 17.7626949 111.157483 17.7626949 111.157483 42.7165932 107.582149 42.7165932 107.582149 31.6064237 103.164603 31.6064237 103.164603 42.7165932 99.5892689 42.7165932"></polygon>
                <polygon id="Fill-8" fill="#FFFFFF" points="121.287934 17.7626949 131.944768 17.7626949 131.944768 21.1272712 124.863268 21.1272712 124.863268 28.4518475 131.033388 28.4518475 131.033388 31.8169322 124.863268 31.8169322 124.863268 39.1420169 131.944768 39.1420169 131.944768 42.7165932 121.287934 42.7165932"></polygon>
                <path d="M147.403942,28.9078983 L149.437762,28.9078983 C150.068404,28.9078983 150.570884,28.8204407 150.944692,28.6445085 C151.3185,28.4695932 151.604832,28.2189153 151.803179,27.8914576 C152.002034,27.5645085 152.136809,27.1612881 152.206484,26.6823051 C152.276669,26.2038305 152.311761,25.6485763 152.311761,25.0175593 C152.311761,24.3865424 152.276669,23.8323051 152.206484,23.3523051 C152.136809,22.874339 151.990337,22.4650169 151.768595,22.1258644 C151.545836,21.7872203 151.236618,21.5360339 150.839415,21.3728136 C150.442212,21.2090847 149.91583,21.1272203 149.262301,21.1272203 L147.403942,21.1272203 L147.403942,28.9078983 Z M143.828608,17.7626441 L149.577622,17.7626441 C153.784107,17.7626441 155.887603,20.204339 155.887603,25.0872203 C155.887603,26.5363729 155.65925,27.7806102 155.204069,28.8204407 C154.74787,29.8597627 153.947362,30.6956949 152.802543,31.3262034 L156.658614,42.7165424 L152.872219,42.7165424 L149.54253,32.0624746 L147.403942,32.0624746 L147.403942,42.7165424 L143.828608,42.7165424 L143.828608,17.7626441 Z" id="Fill-10" fill="#FFFFFF"></path>
                <polygon id="Fill-12" fill="#FFFFFF" points="167.28061 17.7626949 177.937444 17.7626949 177.937444 21.1272712 170.856453 21.1272712 170.856453 28.4518475 177.026065 28.4518475 177.026065 31.8169322 170.856453 31.8169322 170.856453 39.1420169 177.937444 39.1420169 177.937444 42.7165932 167.28061 42.7165932"></polygon>
                <path d="M192.344921,39.3519661 L193.992219,39.3519661 C194.997177,39.3519661 195.71021,39.1012881 196.130807,38.5984068 C196.551405,38.0960339 196.762467,37.3073898 196.762467,36.2324746 L196.762467,24.2116271 C196.762467,23.2297627 196.563102,22.4711186 196.1659,21.9331525 C195.768188,21.3962034 195.043967,21.1272203 193.992219,21.1272203 L192.344921,21.1272203 L192.344921,39.3519661 Z M188.769587,17.7626441 L194.062912,17.7626441 C196.095715,17.7626441 197.649943,18.3290847 198.725086,19.4624746 C199.799212,20.5958644 200.3378,22.1792542 200.3378,24.2116271 L200.3378,35.8826441 C200.3378,38.2185763 199.770731,39.9428136 198.63761,41.0517966 C197.50398,42.1617966 195.873465,42.7165424 193.746573,42.7165424 L188.769587,42.7165424 L188.769587,17.7626441 Z" id="Fill-14" fill="#FFFFFF"></path>
                <polygon id="Fill-16" fill="#FFFFFF" points="212.221386 17.7626949 222.87822 17.7626949 222.87822 21.1272712 215.79672 21.1272712 215.79672 28.4518475 221.96684 28.4518475 221.96684 31.8169322 215.79672 31.8169322 215.79672 39.1420169 222.87822 39.1420169 222.87822 42.7165932 212.221386 42.7165932"></polygon>
                <path d="M237.285696,28.9078983 L239.319517,28.9078983 C239.950159,28.9078983 240.452638,28.8204407 240.826446,28.6445085 C241.200254,28.4695932 241.486078,28.2189153 241.684933,27.8914576 C241.883789,27.5645085 242.018563,27.1612881 242.088239,26.6823051 C242.158423,26.2038305 242.193516,25.6485763 242.193516,25.0175593 C242.193516,24.3865424 242.158423,23.8323051 242.088239,23.3523051 C242.018563,22.874339 241.871583,22.4650169 241.65035,22.1258644 C241.427591,21.7872203 241.118373,21.5360339 240.72117,21.3728136 C240.323458,21.2090847 239.797584,21.1272203 239.144056,21.1272203 L237.285696,21.1272203 L237.285696,28.9078983 Z M233.709854,17.7626441 L239.459377,17.7626441 C243.665353,17.7626441 245.769358,20.204339 245.769358,25.0872203 C245.769358,26.5363729 245.541004,27.7806102 245.085315,28.8204407 C244.629625,29.8597627 243.829116,30.6956949 242.684298,31.3262034 L246.540369,42.7165424 L242.753973,42.7165424 L239.424285,32.0624746 L237.285696,32.0624746 L237.285696,42.7165424 L233.709854,42.7165424 L233.709854,17.7626441 Z" id="Fill-18" fill="#FFFFFF"></path>
                <path d="M258.775029,36.8285085 C258.775029,37.6934237 259.014571,38.3305424 259.493147,38.7388475 C259.972231,39.1481695 260.539301,39.3520678 261.193338,39.3520678 C261.847883,39.3520678 262.414444,39.1481695 262.894037,38.7388475 C263.372104,38.3305424 263.612155,37.6934237 263.612155,36.8285085 L263.612155,23.6503729 C263.612155,22.7864746 263.372104,22.1498644 262.894037,21.7405424 C262.414444,21.3317288 261.847883,21.127322 261.193338,21.127322 C260.539301,21.127322 259.972231,21.3317288 259.493147,21.7405424 C259.014571,22.1498644 258.775029,22.7864746 258.775029,23.6503729 L258.775029,36.8285085 Z M255.199186,23.6503729 C255.199186,22.6461356 255.374139,21.7578305 255.72506,20.9874915 C256.075474,20.2156271 256.536758,19.5795254 257.10993,19.0766441 C257.682085,18.5747797 258.324933,18.1949492 259.037966,17.9381695 C259.749981,17.6813898 260.469116,17.5527458 261.193338,17.5527458 C261.917559,17.5527458 262.636186,17.6813898 263.349727,17.9381695 C264.06225,18.1949492 264.70459,18.5747797 265.277762,19.0766441 C265.849917,19.5795254 266.311202,20.2156271 266.662123,20.9874915 C267.012537,21.7578305 267.187997,22.6461356 267.187997,23.6503729 L267.187997,36.8285085 C267.187997,37.8566441 267.012537,38.7510508 266.662123,39.5096949 C266.311202,40.2698644 265.849917,40.9003729 265.277762,41.4022373 C264.70459,41.9051186 264.06225,42.2844407 263.349727,42.5412203 C262.636186,42.798 261.917559,42.9266441 261.193338,42.9266441 C260.469116,42.9266441 259.749981,42.798 259.037966,42.5412203 C258.324933,42.2844407 257.682085,41.9051186 257.10993,41.4022373 C256.536758,40.9003729 256.075474,40.2698644 255.72506,39.5096949 C255.374139,38.7510508 255.199186,37.8566441 255.199186,36.8285085 L255.199186,23.6503729 Z" id="Fill-20" fill="#FFFFFF"></path>
                <path d="M290.429294,24.947339 L286.853961,24.947339 L286.853961,24.1414068 C286.853961,23.3237797 286.661208,22.617 286.274685,22.0205593 C285.88918,21.4251356 285.241246,21.1271695 284.329358,21.1271695 C283.838576,21.1271695 283.435779,21.2207288 283.119949,21.407339 C282.804628,21.5944576 282.558983,21.8339492 282.384031,22.1258136 C282.20857,22.4181864 282.086001,22.7568305 282.015817,23.1422542 C281.945633,23.527678 281.911049,23.9314068 281.911049,24.3514068 C281.911049,24.8420847 281.928341,25.2575085 281.962924,25.5951356 C281.998525,25.9347966 282.086001,26.226661 282.22637,26.4717458 C282.36623,26.7168305 282.57068,26.9339492 282.840229,27.1205593 C283.108252,27.3081864 283.476465,27.4947966 283.943853,27.6814068 L286.6785,28.7675085 C287.472905,29.0715763 288.115753,29.4280169 288.606535,29.836322 C289.097317,30.2461525 289.47672,30.7246271 289.74576,31.2732712 C290.013783,31.8229322 290.195346,32.4539492 290.289434,33.1658136 C290.381996,33.8792034 290.429294,34.6907288 290.429294,35.6019153 C290.429294,36.6529322 290.324018,37.6292034 290.113973,38.5286949 C289.90342,39.4281864 289.558601,40.1995424 289.079517,40.8417458 C288.600432,41.4839492 287.96267,41.9924237 287.169282,42.3661525 C286.374367,42.7393729 285.404501,42.9264915 284.259174,42.9264915 C283.394075,42.9264915 282.588481,42.7749661 281.840865,42.4714068 C281.09274,42.1678475 280.449892,41.7534407 279.912829,41.2271695 C279.374749,40.7014068 278.948557,40.077 278.633236,39.3519153 C278.317406,38.6283559 278.159746,37.8447966 278.159746,37.0042881 L278.159746,35.6720847 L281.735588,35.6720847 L281.735588,36.7932712 C281.735588,37.4481864 281.928341,38.0375085 282.313846,38.5637797 C282.699352,39.0890339 283.348303,39.3519153 284.259174,39.3519153 C284.866929,39.3519153 285.34042,39.2644576 285.679135,39.0890339 C286.017343,38.9141186 286.274685,38.6685254 286.450146,38.3527627 C286.625607,38.0375085 286.736478,37.647 286.783776,37.1792034 C286.830057,36.7124237 286.853961,36.1978475 286.853961,35.637 C286.853961,34.9831017 286.830057,34.4456441 286.783776,34.0251356 C286.736478,33.6036102 286.636796,33.2654746 286.485747,33.0086949 C286.332664,32.7519153 286.122619,32.5414068 285.854596,32.377678 C285.585556,32.2144576 285.22904,32.0390339 284.785556,31.8514068 L282.22637,30.8003898 C280.68384,30.1693729 279.649892,29.3344576 279.124018,28.2941186 C278.598144,27.2553051 278.334698,25.9525932 278.334698,24.3864915 C278.334698,23.4524237 278.463878,22.5641186 278.721221,21.7225932 C278.977546,20.8820847 279.356949,20.1575085 279.859936,19.5503898 C280.362416,18.9427627 280.999161,18.457678 281.770172,18.0951356 C282.541691,17.7331017 283.440865,17.5525932 284.470235,17.5525932 C285.357711,17.5525932 286.169917,17.7158136 286.906345,18.0427627 C287.642263,18.3702203 288.273414,18.8029322 288.799288,19.3398814 C289.324654,19.877339 289.728468,20.4783559 290.008697,21.1444576 C290.289434,21.8105593 290.429294,22.4944576 290.429294,23.1951356 L290.429294,24.947339 Z" id="Fill-22" fill="#FFFFFF"></path>
                <mask id="mask-2" fill="white">
                    <use xlink:href="#path-1"></use>
                </mask>
                <g id="Clip-25"></g>
                <path d="M6.12994278,53.8428814 L301.159568,53.8428814 L301.159568,6.63661017 L6.12994278,6.63661017 L6.12994278,53.8428814 Z M0,59.9715254 L307.289002,59.9715254 L307.289002,0.508474576 L0,0.508474576 L0,59.9715254 Z" id="Fill-24" fill="#FFFFFF" mask="url(#mask-2)"></path>
                <polygon id="Fill-26" fill="#FFFFFF" mask="url(#mask-2)" points="1.37724094 32.3252542 69.7383344 32.3252542 69.7383344 29.2611864 1.37724094 29.2611864"></polygon>
                <polygon id="Fill-27" fill="#FFFFFF" mask="url(#mask-2)" points="87.9954228 31.8086441 190.252003 31.8086441 190.252003 28.4486441 87.9954228 28.4486441"></polygon>
                <polygon id="Fill-28" fill="#FFFFFF" mask="url(#mask-2)" points="199.53007 31.92 257.066497 31.92 257.066497 28.3998305 199.53007 28.3998305"></polygon>
                <polygon id="Fill-29" fill="#FFFFFF" mask="url(#mask-2)" points="263.966434 31.7247458 284.446535 31.7247458 284.446535 28.660678 263.966434 28.660678"></polygon>
                <polygon id="Fill-30" fill="#FFFFFF" mask="url(#mask-2)" points="282.914177 58.6098305 285.978894 58.6098305 285.978894 40.4328814 282.914177 40.4328814"></polygon>
                <polygon id="Fill-31" fill="#FFFFFF" mask="url(#mask-2)" points="87.9959313 31.2788136 91.0606484 31.2788136 91.0606484 2.30288136 87.9959313 2.30288136"></polygon>
                <polygon id="Fill-1" fill="#FFFFFF" mask="url(#mask-2)" points="16.859199 17.7626949 20.4350413 17.7626949 20.4350413 39.1420169 27.5160331 39.1420169 27.5160331 42.7165932 16.859199 42.7165932"></polygon>
            </g>
        </g>
    </g>
</svg>