<?xml version="1.0" encoding="UTF-8"?>
<svg width="328px" height="60px" viewBox="0 0 328 60" version="1.1" xmlns="http://www.w3.org/2000/svg" xmlns:xlink="http://www.w3.org/1999/xlink">
    <!-- Generator: Sketch 41.2 (35397) - http://www.bohemiancoding.com/sketch -->
    <title>statlergrill-logo</title>
    <desc>Created with Sketch.</desc>
    <defs></defs>
    <g id="Page-1" stroke="none" stroke-width="1" fill="none" fill-rule="evenodd">
        <g id="statlergrill-logo" fill="#000000">
            <g id="Group">
                <path d="M163.359545,37.5504545 L159.514091,37.5504545 C159.368182,37.4045455 159.252273,37.2886364 159.095455,37.1318182 L159.095455,1.04863636 C159.219545,0.924545455 159.375,0.769090909 159.545455,0.598636364 L169.006364,0.598636364 C171.006818,0.598636364 171.006818,0.598636364 172.360909,1.96636364 C173.027727,3.52909091 172.780909,5.03863636 172.791818,6.52227273 C172.819091,9.90136364 172.765909,13.2818182 172.824545,16.6595455 C172.839545,17.4272727 172.630909,18.1322727 172.397727,18.7854545 C171.961364,20.0059091 171.005455,20.7 169.459091,20.5527273 C170.785909,26.1463636 172.086818,31.6322727 173.394545,37.1495455 C173.288182,37.2572727 173.134091,37.4113636 172.971818,37.5736364 L168.624545,37.5736364 C167.209091,31.0690909 165.788182,24.5345455 164.338636,17.8759091 C164.536364,17.4640909 164.796818,16.92 165.088636,16.3131818 L168.162273,16.3131818 L168.162273,4.905 C167.436818,4.785 166.630909,4.875 165.834545,4.85863636 C165.025909,4.84227273 164.215909,4.85590909 163.359545,4.85590909 C163.359545,15.75 163.359545,26.5813636 163.359545,37.5504545 Z" id="Shape"></path>
                <path d="M246.445909,16.2777273 L249.672273,16.2777273 L249.672273,4.91590909 L244.907727,4.91590909 C244.936364,4.88863636 244.89,4.92 244.86,4.96227273 C244.831364,5.00181818 244.802727,5.05363636 244.802727,5.10136364 C244.8,15.8918182 244.8,26.6822727 244.8,37.5259091 L240.624545,37.5259091 L240.624545,0.598636364 L245.155909,0.598636364 C247.172727,0.598636364 249.193636,0.544090909 251.207727,0.620454545 C252.308182,0.662727273 253.384091,0.955909091 253.778182,2.21863636 C253.869545,2.51181818 253.956818,2.82136364 253.956818,3.12409091 C253.967727,8.08636364 253.977273,13.0486364 253.947273,18.0109091 C253.943182,18.5509091 253.699091,19.0895455 253.558636,19.6663636 C252.709091,20.0345455 251.923636,20.3754545 250.992273,20.7777273 C251.273182,22.5177273 251.897727,24.2986364 252.280909,26.1259091 C252.669545,27.9804545 253.272273,29.79 253.572273,31.6377273 C253.879091,33.5181818 254.562273,35.2745455 254.802273,37.3090909 C254.619545,37.3677273 254.288182,37.5559091 253.952727,37.5654545 C252.700909,37.6022727 251.446364,37.5804545 250.093636,37.5804545 C250.017273,36.4636364 249.424091,35.4668182 249.366818,34.3131818 C249.312273,33.2359091 248.886818,32.2145455 248.667273,31.1604545 C248.421818,29.9809091 248.266364,28.7631818 247.825909,27.5972727 C247.591364,26.9754545 247.554545,26.1859091 247.419545,25.4727273 C247.088182,23.7109091 246.737727,21.9518182 246.242727,20.2309091 C246.043636,19.5368182 246.076364,18.8181818 245.854091,18.1104545 C245.698636,17.6140909 246.220909,16.9036364 246.445909,16.2777273 Z" id="Shape"></path>
                <path d="M222.969545,37.1836364 C221.916818,37.7004545 220.846364,37.5790909 219.790909,37.5818182 C218.101364,37.5845455 216.410455,37.5927273 214.720909,37.5804545 C212.694545,37.5640909 211.423636,36.3027273 211.422273,34.2709091 C211.414091,23.7518182 211.418182,13.2327273 211.418182,2.87318182 C211.899545,1.80818182 212.526818,1.06227273 213.737727,0.625909091 L222.66,0.625909091 C222.954545,0.845454545 223.280455,1.08954545 223.795909,1.47545455 C223.932273,1.74 224.184545,2.23227273 224.465455,2.78045455 L224.465455,11.6890909 L220.268182,11.6890909 L220.268182,4.88727273 L215.73,4.88727273 L215.73,33.2590909 C216.335455,33.4118182 217.032273,33.3068182 217.715455,33.3245455 C218.416364,33.3422727 219.117273,33.3286364 219.763636,33.3286364 C219.934091,33.1568182 220.05,33.0422727 220.209545,32.8813636 L220.209545,22.5545455 L218.000455,22.5545455 L218.000455,18.3354545 L224.447727,18.3354545 C224.466818,18.6763636 224.506364,19.0854545 224.506364,19.4972727 C224.511818,24.24 224.465455,28.9840909 224.535,33.7240909 C224.556818,35.1668182 224.299091,36.36 222.969545,37.1836364 Z" id="Shape"></path>
                <path d="M30.4445455,5.19681818 L26.5690909,5.19681818 L26.5690909,0.765 C27.8290909,0.529090909 34.8804545,0.462272727 39.5440909,0.655909091 L39.5440909,5.13545455 L35.3945455,5.13545455 L35.3945455,59.1081818 C34.5709091,59.2636364 33.7690909,59.1613636 32.9768182,59.1790909 C32.1668182,59.1981818 31.3568182,59.1845455 30.4459091,59.1845455 C30.4445455,41.1695455 30.4445455,23.2104545 30.4445455,5.19681818 Z" id="Shape"></path>
                <path d="M83.7872727,59.1245455 L83.7872727,5.24454545 L79.6227273,5.24454545 C79.4386364,4.46454545 79.5518182,3.71454545 79.5313636,2.97818182 C79.5109091,2.22272727 79.5272727,1.46590909 79.5272727,0.655909091 L92.5581818,0.655909091 C92.6959091,1.32545455 92.5963636,2.07681818 92.6140909,2.81727273 C92.6318182,3.57272727 92.6181818,4.32681818 92.6181818,5.13818182 L88.4140909,5.13818182 L88.4140909,59.1259091 C86.8595455,59.1245455 85.4031818,59.1245455 83.7872727,59.1245455 Z" id="Shape"></path>
                <path d="M67.6854545,37.1672727 C66.8359091,37.6759091 66.525,37.7004545 63.2386364,37.5081818 C62.91,35.1531818 62.5813636,32.7954545 62.25,30.4227273 L56.6072727,30.4227273 C56.8677273,31.6977273 56.0809091,32.8663636 56.2909091,34.1563636 C55.5995455,35.1981818 56.4,36.5945455 55.4263636,37.5818182 L51.4486364,37.5818182 C51.4486364,37.2872727 51.4145455,36.9872727 51.4581818,36.6995455 C51.5031818,36.4022727 51.6736364,36.12 51.6995455,35.8227273 C51.7527273,35.2009091 51.6777273,34.5981818 52.0063636,33.9790909 C52.2859091,33.4540909 51.9368182,32.7954545 52.3036364,32.1327273 C52.6172727,31.5654545 52.4113636,30.735 52.6472727,29.9986364 C52.9445455,29.0672727 52.8940909,28.0281818 53.0263636,27.0409091 C53.0945455,26.535 53.2718182,26.0440909 53.3359091,25.5368182 C53.3945455,25.0731818 53.4981818,24.6368182 53.6209091,24.1868182 C53.835,23.3986364 53.8472727,22.5340909 53.9372727,21.7118182 C54.1213636,20.0481818 54.4418182,18.3995455 54.7240909,16.7659091 C54.9940909,15.2113636 55.1263636,13.6145455 55.6009091,12.0777273 C55.9036364,11.0918182 55.8381818,9.99545455 55.9718182,8.95363636 C56.0372727,8.44772727 56.2131818,7.95681818 56.2827273,7.44954545 C56.3536364,6.93818182 56.3618182,6.45409091 56.565,5.92909091 C56.8131818,5.28545455 56.6768182,4.51636364 56.9031818,3.78136364 C57.2059091,2.79954545 57.1977273,1.72227273 57.3272727,0.643636364 L61.7577273,0.643636364 C61.8968182,1.48227273 62.1286364,2.34545455 62.1586364,3.21409091 C62.1886364,4.06363636 62.4695455,4.85727273 62.5690909,5.68909091 C62.7422727,7.12636364 62.9359091,8.58545455 63.2304545,9.99272727 C63.5563636,11.5472727 63.5113636,13.1809091 64.1468182,14.6713636 C63.9122727,15.7527273 64.4672727,16.7481818 64.4904545,17.8077273 C64.5013636,18.3109091 64.695,18.8072727 64.8,19.3090909 C64.8940909,19.7618182 64.7304545,20.2022727 65.0331818,20.6931818 C65.4013636,21.2890909 65.1109091,22.08 65.3945455,22.8245455 C65.7572727,23.7736364 65.6563636,24.8945455 65.7913636,25.9363636 C65.8568182,26.4422727 66.0177273,26.9345455 66.1063636,27.4390909 C66.195,27.945 65.9018182,28.5327273 66.4390909,28.9404545 C66.2181818,29.9154545 66.7254545,30.8004545 66.7854545,31.7481818 C66.8563636,32.8786364 67.0131818,34.0036364 67.3677273,35.0986364 C67.4945455,35.4927273 67.3840909,35.9590909 67.4304545,36.3859091 C67.455,36.63 67.5804545,36.8618182 67.6854545,37.1672727 Z M59.205,13.4959091 C59.205,14.3522727 59.3631818,14.9959091 59.1709091,15.5086364 C58.8013636,16.4972727 58.7659091,17.5281818 58.6172727,18.5331818 C58.4809091,19.4590909 58.0336364,20.3590909 58.2545455,21.3313636 C57.5754545,22.8490909 57.8345455,24.5331818 57.2522727,26.0863636 L61.4318182,26.0863636 C61.4713636,25.95 61.5272727,25.8518182 61.5231818,25.7563636 C61.4631818,24.4595455 61.2872727,23.1886364 60.8959091,21.9381818 C60.7404545,21.4445455 61.0145455,20.76 60.7690909,20.3659091 C60.4281818,19.8231818 60.6477273,19.3213636 60.5454545,18.8154545 C60.4431818,18.315 60.3,17.8213636 60.2263636,17.3168182 C60.0681818,16.2368182 59.9427273,15.1513636 59.8063636,14.0945455 C59.6645455,13.9554545 59.5486364,13.8409091 59.205,13.4959091 Z" id="Shape"></path>
                <path d="M10.4836364,0.6 C11.0631818,0.897272727 11.4681818,1.10590909 11.9754545,1.36636364 C12.1568182,1.63363636 12.4145455,2.01409091 12.7268182,2.47363636 L12.7268182,11.355 L8.53363636,11.355 L8.53363636,4.89136364 L5.29772727,4.89136364 L5.29772727,11.1313636 C7.76863636,15.2413636 10.2136364,19.3104545 12.7636364,23.5513636 L12.7636364,33.7881818 C12.7636364,35.79 12.7636364,35.79 11.2786364,37.2545455 C8.56772727,37.9159091 5.81318182,37.41 3.27681818,37.5954545 C2.655,37.2804545 2.205,37.0513636 1.78090909,36.8345455 C1.60909091,36.5781818 1.39772727,36.3422727 1.28045455,36.0681818 C1.04454545,35.5118182 0.691363636,34.9363636 0.681818182,34.3636364 C0.624545455,31.1031818 0.653181818,27.8413636 0.653181818,24.5359091 L4.78909091,24.5359091 C4.92409091,24.6695455 5.07681818,24.8236364 5.23363636,24.9790909 L5.23363636,32.9631818 C6.17590909,33.0395455 7.12772727,32.9795455 8.13,33.0027273 L8.13,24.8209091 C7.55727273,23.8172727 7.08,22.9131818 6.53863636,22.0472727 C5.02909091,19.6281818 3.51545455,17.2104545 2.15318182,14.7027273 C1.98272727,14.3890909 1.82318182,14.04 1.56818182,13.8068182 C0.795,13.1004545 0.714545455,12.1295455 0.681818182,11.2336364 C0.597272727,8.83772727 0.662727273,6.43636364 0.647727273,4.03772727 C0.643636364,3.18136364 0.961363636,2.35090909 1.39772727,1.74545455 C1.91590909,1.02545455 2.835,0.597272727 3.82909091,0.598636364 C6.06681818,0.6 8.30181818,0.6 10.4836364,0.6 Z" id="Shape"></path>
                <path d="M269.724545,0.63 L274.202727,0.63 L274.202727,59.1177273 C273.531818,59.2609091 272.780455,59.1572727 272.04,59.1763636 C271.284545,59.1968182 270.530455,59.1818182 269.724545,59.1818182 L269.724545,0.63 Z" id="Shape"></path>
                <path d="M137.158636,20.5063636 L137.158636,32.8677273 C137.304545,33.0136364 137.420455,33.1295455 137.593636,33.3013636 L143.934545,33.3013636 L143.934545,37.5477273 L132.605455,37.5477273 L132.605455,0.631363636 L143.615455,0.631363636 L143.615455,5.07818182 C143.638636,5.05636364 143.603182,5.10136364 143.558182,5.13 C143.517273,5.15590909 143.464091,5.17909091 143.416364,5.18045455 C141.353182,5.18181818 139.29,5.18181818 137.177727,5.18181818 L137.177727,15.8686364 C137.293636,15.9845455 137.447727,16.1386364 137.659091,16.35 L142.985455,16.35 L142.985455,20.5063636 C141.079091,20.5063636 139.186364,20.5063636 137.158636,20.5063636 Z" id="Shape"></path>
                <path d="M295.850455,33.3218182 L302.344091,33.3218182 L302.344091,37.4781818 C302.364545,37.4577273 302.329091,37.5040909 302.284091,37.5313636 C302.243182,37.5586364 302.19,37.5804545 302.142273,37.5804545 C298.444091,37.5831818 294.745909,37.5818182 290.997273,37.5818182 L290.997273,0.657272727 C291.718636,0.520909091 292.521818,0.623181818 293.314091,0.604090909 C294.124091,0.586363636 294.934091,0.6 295.849091,0.6 C295.850455,11.5240909 295.850455,22.395 295.850455,33.3218182 Z" id="Shape"></path>
                <path d="M321.33,33.3245455 L327.872727,33.3245455 L327.872727,37.5 L316.850455,37.5 L316.850455,0.664090909 C317.522727,0.516818182 318.272727,0.621818182 319.011818,0.602727273 C319.767273,0.583636364 320.522727,0.598636364 321.33,0.598636364 C321.33,11.4886364 321.33,22.3186364 321.33,33.3245455 Z" id="Shape"></path>
                <path d="M111.920455,33.3190909 L118.414091,33.3190909 L118.414091,37.4754545 C118.435909,37.4522727 118.403182,37.5 118.359545,37.5286364 C118.318636,37.5572727 118.266818,37.5804545 118.219091,37.5804545 C114.63,37.5831818 111.040909,37.5818182 107.398636,37.5818182 L107.398636,0.631363636 L111.920455,0.631363636 C111.920455,11.5213636 111.920455,22.3922727 111.920455,33.3190909 Z" id="Shape"></path>
                <path d="M156.264545,50.7136364 L157.506818,50.7136364 C156.683182,53.6563636 155.88,56.5213636 155.060455,59.4477273 L154.164545,59.4477273 C153.585,57.4663636 152.975455,55.3854545 152.288182,53.0345455 C151.615909,55.3363636 151.010455,57.4104545 150.406364,59.4845455 C149.800909,59.5963636 149.378182,59.4340909 149.233636,58.7672727 C148.868182,57.0804545 148.235455,55.4659091 147.908182,53.7627273 C147.713182,52.7440909 147.319091,51.7636364 147.001364,50.7190909 L148.240909,50.7190909 C148.730455,52.515 149.236364,54.3695455 149.809091,56.4709091 C150.207273,55.3431818 150.675,54.4213636 150.834545,53.4477273 C150.977727,52.575 151.441364,51.8277273 151.554545,50.9536364 C151.625455,50.4068182 152.139545,50.2527273 152.773636,50.37 C153.372273,52.4059091 153.984545,54.4881818 154.615909,56.6345455 C155.165455,54.6545455 155.695909,52.7522727 156.264545,50.7136364 Z" id="Shape"></path>
                <path d="M233.623636,51.8290909 C233.948182,53.4436364 233.436818,54.7540909 231.955909,55.7209091 C232.550455,56.9222727 233.125909,58.0881818 233.768182,59.3863636 C233.301818,59.4477273 232.911818,59.4981818 232.435909,59.5609091 C231.748636,58.2395455 231.070909,56.9345455 230.389091,55.6240909 L227.805,55.6240909 L227.805,59.4695455 L226.798636,59.4695455 L226.798636,55.6022727 C226.798636,54.7840909 226.960909,53.925 226.753636,53.1640909 C226.540909,52.3813636 226.479545,51.6231818 226.47,50.8322727 C226.622727,50.6822727 226.779545,50.5295455 226.990909,50.3236364 C228.785455,50.4668182 230.638636,50.6181818 232.636364,50.7777273 C232.89,51.0504545 233.262273,51.4445455 233.623636,51.8290909 Z M232.322727,52.3377273 C230.886818,51.2413636 229.326818,51.8113636 227.854091,51.6272727 L227.854091,54.2386364 L231.906818,54.2386364 C232.054091,54.0927273 232.168636,53.9768182 232.324091,53.8213636 C232.322727,53.3918182 232.322727,52.9213636 232.322727,52.3377273 Z" id="Shape"></path>
                <path d="M208.930909,59.7668182 C208.868182,59.7272727 208.696364,59.5227273 208.524545,59.5227273 C206.642727,59.5336364 205.688182,58.0418182 205.2,56.2009091 C205.096364,55.8095455 204.904091,55.4222727 204.897273,55.0309091 C204.890455,54.6968182 205.122273,54.3668182 205.190455,54.0231818 C205.240909,53.7613636 205.201364,53.4804545 205.201364,53.1995455 C205.690909,52.0295455 206.76,51.3436364 207.593182,50.3890909 L210.525,50.3890909 C211.167273,50.9809091 211.944545,51.6968182 212.836364,52.5190909 C212.904545,53.4763636 213.062727,54.5181818 213.035455,55.5559091 C212.990455,57.3586364 212.135455,58.5204545 210.657273,59.4136364 C210.252273,59.6604545 209.679545,59.6263636 208.930909,59.7668182 Z M209.110909,58.4672727 C209.560909,58.3377273 209.948182,58.2259091 210.216818,58.1495455 C211.47,57.4336364 211.674545,56.2077273 212.004545,54.9518182 C211.748182,54.4472727 211.748182,54.4472727 211.729091,53.4368182 C210.677727,51.7445455 210.433636,51.6204545 208.262727,51.7036364 C205.400455,53.2581818 205.858636,56.6181818 207.834545,58.0609091 C208.381364,58.2354545 208.719545,58.3431818 209.110909,58.4672727 Z" id="Shape"></path>
                <path d="M113.211818,56.7136364 L113.211818,50.7395455 L114.114545,50.7395455 C114.306818,50.8868182 114.340909,57.6177273 114.062727,59.5404545 C113.003182,59.3604545 112.885909,58.2627273 112.268182,57.6709091 C111.688636,57.1145455 111.346364,56.3181818 110.851364,55.6636364 C110.316818,54.9559091 109.725,54.2931818 109.055455,53.4872727 L109.055455,58.8327273 C108.715909,59.4436364 108.313636,59.5977273 107.731364,59.4695455 L107.731364,50.6986364 C107.982273,50.685 108.190909,50.6740909 108.557727,50.655 C110.025,52.5668182 111.544091,54.5427273 113.211818,56.7136364 Z" id="Shape"></path>
                <path d="M134.802273,58.1454545 L134.802273,59.4613636 L128.732727,59.4613636 C128.615455,59.3427273 128.46,59.1886364 128.335909,59.0645455 L128.335909,50.7913636 C128.498182,50.6304545 128.612727,50.5145455 128.751818,50.3754545 L134.455909,50.3754545 L134.455909,51.6136364 L129.645,51.6136364 L129.645,53.9181818 L132.505909,53.9181818 L132.505909,55.1918182 L129.642273,55.1918182 C129.556364,56.1913636 129.619091,57.1418182 129.594545,58.1454545 L134.802273,58.1454545 Z" id="Shape"></path>
                <path d="M254.526818,59.475 L253.021364,59.475 C252.072273,57.9654545 251.120455,56.4518182 250.138636,54.8863636 C249.392727,55.1140909 249.100909,55.9213636 248.423182,56.28 L248.423182,59.1613636 C248.04,59.3154545 247.667727,59.4668182 247.171364,59.6672727 L247.171364,50.4354545 C247.689545,50.1627273 248.063182,50.4040909 248.442273,50.8977273 L248.442273,54.3927273 C249.542727,53.2922727 250.509545,52.2981818 251.509091,51.3409091 C251.881364,50.985 252.310909,50.6659091 252.765,50.43 C252.996818,50.3086364 253.343182,50.4081818 253.872273,50.4081818 C252.814091,51.6531818 251.899091,52.7277273 250.967727,53.8227273 C252.125455,55.6622727 253.264091,57.4718182 254.526818,59.475 Z" id="Shape"></path>
                <path d="M185.368636,50.7463636 L186.841364,50.7463636 C187.587273,51.6218182 188.445,52.6281818 189.340909,53.6795455 C190.299545,52.5613636 191.232273,51.4731818 192.167727,50.3795455 L193.298182,50.3795455 C193.302273,50.4640909 193.339091,50.565 193.303636,50.6140909 C192.698182,51.45 192.091364,52.29 191.465455,53.1109091 C190.955455,53.7790909 190.420909,54.4268182 189.804545,55.2 L189.804545,59.4586364 L188.911364,59.4586364 L188.911364,55.2068182 C187.733182,53.7231818 186.608182,52.3063636 185.368636,50.7463636 Z" id="Shape"></path>
            </g>
        </g>
    </g>
</svg>