<?xml version="1.0" encoding="UTF-8" standalone="no"?>
<svg width="37px" height="30px" viewBox="0 0 37 30" version="1.1" xmlns="http://www.w3.org/2000/svg" xmlns:xlink="http://www.w3.org/1999/xlink" xmlns:sketch="http://www.bohemiancoding.com/sketch/ns">
    <!-- Generator: Sketch 3.4.2 (15857) - http://www.bohemiancoding.com/sketch -->
    <title>twitter</title>
    <desc>Created with Sketch.</desc>
    <defs>
        <path id="path-1" d="M0,0.11058296 L36.8742463,0.11058296 L36.8742463,30 L0,30"></path>
    </defs>
    <g id="Page-1" stroke="none" stroke-width="1" fill="none" fill-rule="evenodd" sketch:type="MSPage">
        <g id="twitter" sketch:type="MSLayerGroup">
            <mask id="mask-2" sketch:name="Clip 2" fill="white">
                <use xlink:href="#path-1"></use>
            </mask>
            <g id="Clip-2"></g>
            <path d="M36.8741923,3.64878027 C35.5174564,4.2489148 34.059562,4.65465471 32.5291035,4.8369417 C34.0911235,3.90317489 35.2907268,2.42429596 35.8554602,0.662367713 C34.3937893,1.52712108 32.774716,2.15496861 31.051517,2.49344395 C29.671582,1.0269417 27.7053332,0.110529148 25.5296192,0.110529148 C21.3513742,0.110529148 17.9641876,3.48909417 17.9641876,7.656 C17.9641876,8.24752466 18.031087,8.82330942 18.1600301,9.37555157 C11.8727007,9.06088789 6.29833545,6.05685202 2.56707553,1.49173991 C1.91575056,2.60617937 1.54281339,3.90236771 1.54281339,5.28519283 C1.54281339,7.90299552 2.87837353,10.2125919 4.90828467,11.5658206 C3.66821803,11.5266726 2.50165979,11.1871211 1.48171374,10.6219641 C1.48117423,10.6534439 1.48103935,10.6850583 1.48103935,10.7168072 C1.48103935,14.3727713 4.08876706,17.4225471 7.54959695,18.1157758 C6.91472707,18.2881076 6.24640749,18.3802601 5.55650746,18.3802601 C5.06892415,18.3802601 4.59509838,18.3330404 4.13314186,18.2450583 C5.09589971,21.2427713 7.88962393,23.4244305 11.2000651,23.4853722 C8.61095049,25.5090942 5.34906538,26.7152825 1.80461123,26.7152825 C1.19401936,26.7152825 0.591789908,26.6796323 -5.39511266e-05,26.6099462 C3.34801809,28.750843 7.32448588,29.9999462 11.5967407,29.9999462 C25.5119502,29.9999462 33.1212171,18.502278 33.1212171,8.53097758 C33.1212171,8.20380269 33.1137988,7.87837668 33.0993669,7.55483408 C34.577358,6.49097758 35.8599111,5.16196413 36.8741923,3.64878027" id="Fill-1" fill="#55ACEE" sketch:type="MSShapeGroup" mask="url(#mask-2)"></path>
        </g>
    </g>
</svg>