<?xml version="1.0" encoding="UTF-8"?>
<svg width="232px" height="45px" viewBox="0 0 232 45" version="1.1" xmlns="http://www.w3.org/2000/svg" xmlns:xlink="http://www.w3.org/1999/xlink">
    <!-- Generator: Sketch 41.2 (35397) - http://www.bohemiancoding.com/sketch -->
    <title>ubrlocal-logo</title>
    <desc>Created with Sketch.</desc>
    <defs></defs>
    <g id="Page-1" stroke="none" stroke-width="1" fill="none" fill-rule="evenodd">
        <g id="ubrlocal-logo" fill="#FFFFFF">
            <g id="Page-1">
                <g id="ubrlocal">
                    <g id="logo">
                        <path d="M192.199265,30.3200365 C193.131293,30.3200365 194.064996,30.3326609 194.996187,30.3141452 C195.413213,30.3057289 195.240708,30.1567612 195.147757,29.8655589 C194.642803,28.2681543 193.856483,26.7751112 193.553344,25.0977521 C193.388376,24.186272 192.923618,23.3337056 192.859975,22.3734113 C192.847414,22.1941451 192.522502,21.9273499 192.316501,21.9021012 C192.130598,21.8785357 192.20094,22.2219187 192.145671,22.3995017 C191.511759,24.4109859 190.880357,26.4224702 190.205411,28.4188052 C190.082314,28.7832289 190.310925,29.1947836 189.953354,29.5272256 C189.754052,29.7123831 189.275058,29.8714503 189.480222,30.1988425 C189.585734,30.3671675 190.081476,30.3074121 190.402201,30.3158283 C191.000106,30.3309776 191.599685,30.3200365 192.199265,30.3200365 M204.381785,44.0553599 C203.109772,44.0553599 201.836921,44.0822919 200.566583,44.0427355 C200.05493,44.025903 199.219204,44.3297297 199.099455,43.8735688 C198.957097,43.3256708 198.662332,42.8316368 198.570218,42.2635398 C198.360867,40.9623872 197.951377,39.7209901 197.410415,38.5098914 C197.24796,38.1488342 197.185154,37.9855589 196.782365,37.9880837 C193.836386,38.0023914 190.891244,38.0007081 187.946102,37.989767 C187.567596,37.9880837 187.384206,38.0402645 187.309677,38.5006335 C187.060131,40.0509071 186.097119,41.4033989 186.092932,43.0462512 C186.091257,43.6454884 185.4071,44.0519934 184.764812,44.0536766 C181.952818,44.0578848 179.140823,44.059568 176.329666,44.0511518 C175.763582,44.0494685 175.395963,43.6210813 175.707476,43.2112098 C176.120315,42.6700448 175.869932,41.92184 176.411731,41.4639959 C176.493796,41.3958242 176.467,41.054966 176.370698,40.9463963 C176.168884,40.7174743 175.923526,40.7881708 175.695753,40.9960523 C174.754513,41.8570349 173.648305,42.4470141 172.510277,43.0050116 C170.790253,43.8508449 169.00575,44.4980547 167.085589,44.4181003 C166.312667,44.3861186 165.810226,44.9609486 165.038141,44.8969851 C163.61707,44.7833657 162.240382,44.4197836 160.790839,44.3827521 C159.542274,44.3499287 158.194057,43.8500033 157.100411,43.1985854 C155.64082,42.3300282 154.069016,41.6441037 152.817101,40.3555755 C151.441249,38.9391202 150.181798,37.4494436 149.209574,35.771243 C148.567287,34.6636642 148.333652,33.3162222 147.939236,32.0680921 C147.246705,29.8731335 147.276851,27.5527728 147.617673,25.3872711 C148.11509,22.2143441 149.058841,19.0725572 151.581096,16.7665042 C152.791978,15.6589254 153.831194,14.393121 155.217931,13.4387181 C156.761263,12.3757455 158.478773,11.8884444 160.190422,11.3506459 C162.695091,10.5654096 165.318671,10.7783408 167.843436,11.0131542 C169.776997,11.1924204 171.670362,12.1013756 173.31167,13.2535606 C173.988291,13.7290788 174.586195,14.2710854 175.38089,14.5875365 C176.108592,14.8778972 175.995542,15.2027645 175.712501,16.0965705 C175.470492,16.859083 174.826529,17.2041493 174.421227,17.7688797 C173.450678,19.1196882 172.663521,20.6085232 171.491159,21.8179386 C171.011327,22.3136559 170.688928,22.3633118 170.219983,21.82383 C168.626407,19.9899287 166.490195,19.3881667 164.190691,19.4479221 C162.939613,19.4799038 161.723705,19.9158656 160.764881,20.8542778 C159.54981,22.0426526 158.598522,23.2823665 158.33809,25.1078516 C157.988894,27.5536144 158.039975,27.5300489 158.31883,29.8352604 C158.514781,31.4545473 159.425038,32.6235647 159.99782,34.0013051 C160.045552,34.1157662 160.091609,34.3000821 160.172837,34.3211227 C161.454062,34.6544063 162.360967,35.8764461 163.71086,35.9513508 C165.318671,36.0422463 166.96249,36.1609154 168.468976,35.3386476 C169.342385,34.8614461 170.261852,34.4498914 171.073295,33.882636 C171.440077,33.6284652 171.75494,33.5283117 172.150194,33.5552438 C172.639237,33.5897504 172.293389,34.1797297 172.60909,34.3017653 C173.258914,34.5534113 172.855286,35.3874619 173.117392,35.5170722 C173.620671,35.7661932 173.884452,36.0052148 174.105526,36.5446966 C174.317389,37.0631377 175.034205,37.3770638 175.225133,37.8938218 C175.431971,38.4518192 175.856533,38.7211393 176.190656,39.1049204 C176.62778,39.6090539 177.229035,39.5290995 177.243271,38.9525863 C177.26923,37.8769892 177.962599,37.0799701 178.243966,36.1163093 C178.51361,35.1930464 178.545431,34.0997753 179.28988,33.3305299 C179.674248,31.0303681 180.776269,28.9667031 181.488897,26.7725862 C182.137883,24.7754096 182.472007,22.6258988 183.701313,20.835762 C183.755744,19.3216783 184.345275,18.0180008 185.26223,16.8439337 C184.818406,16.4668856 185.291538,16.1386518 185.301588,15.7885357 C185.312473,15.3660398 185.694329,14.9401775 185.660833,14.7567031 C185.530198,14.056471 186.579463,14.0522629 186.336616,13.3427728 C186.161599,12.8302231 186.669064,12.3538631 186.543454,11.77735 C186.432079,11.2706915 186.88009,11.3338134 187.199977,11.3338134 C189.141911,11.3321302 191.083009,11.3329718 193.024106,11.3329718 C194.631079,11.3329718 196.237216,11.3354967 197.84419,11.3312885 C198.252841,11.330447 198.389338,11.4440664 198.637209,11.8892861 C199.531554,13.4917404 199.952768,15.2692529 200.5289,16.9583947 C201.534619,19.9032413 202.531127,22.8556625 203.536009,25.803034 C205.10195,30.3991493 206.880592,34.9220431 208.245557,39.5888549 C208.399639,40.1157122 208.954836,40.5659818 208.995031,41.0776898 C209.073747,42.0960564 209.788888,42.9132745 209.755391,43.9366907 C208.842624,44.1773955 207.913945,44.01917 206.991966,44.0486268 C206.122743,44.0780837 205.251845,44.0553599 204.381785,44.0553599" id="Fill-1"></path>
                        <path d="M32.174983,21.8590099 C32.174983,24.6835041 32.1582349,27.5079983 32.17917,30.3333341 C32.2034546,33.6804776 31.2052718,36.7658756 29.2733861,39.3959544 C27.9996981,41.130544 26.4077975,42.7868624 24.0764711,43.248073 C20.6079533,45.0971236 16.8279221,45.0516758 13.1031593,44.7949801 C11.1553629,44.6611617 9.13052565,44.0551915 7.41133998,43.0991053 C5.92243976,42.2717877 4.41679151,41.2963441 3.29969765,39.8899884 C2.15078252,38.4440763 1.31840523,36.8348889 0.836061854,35.0641094 C0.39977557,33.4624967 -0.00301464611,31.8533093 0.00619677256,30.1565929 C0.0380180371,24.037136 0.0329936269,17.9168375 0.000334960679,11.796539 C-0.00385204781,11.077791 0.155254275,10.8976832 0.87876934,10.9086244 C3.89006584,10.956597 6.90136234,10.9195655 9.91265886,10.9338731 C11.0305901,10.9389229 11.2684122,11.1880439 11.270087,12.337704 C11.2776236,18.5918209 11.3077701,24.8467794 11.2516642,31.1008964 C11.2357535,32.9305895 12.0806918,35.0237114 14.6238808,35.8560788 C16.1948463,36.3703118 17.8663001,36.0311369 19.1960941,35.0279195 C20.3533832,34.1551543 20.9362148,32.8657844 20.9295156,31.3281352 C20.9060683,25.3433383 20.9203042,19.3576999 20.9203042,13.3720614 C20.9203042,13.0354113 20.9144424,12.6996028 20.9211415,12.3629528 C20.9454262,11.1880439 21.1505896,10.9549138 22.2551224,10.9338731 C23.2591671,10.9136741 24.2623743,10.9288234 25.2664189,10.9288234 C27.2736708,10.9288234 29.2817601,10.9557553 31.2890119,10.9145157 C31.9530715,10.9002082 32.2118286,10.9868955 32.1992676,11.7712903 C32.1423243,15.1335829 32.174983,18.4967173 32.174983,21.8590099" id="Fill-3"></path>
                        <path d="M45.0373055,21.5343951 C45.0373055,22.4046356 45.0364681,23.2757177 45.0373055,24.1467997 C45.0381429,24.4220112 45.0473544,24.682915 45.4400958,24.6669242 C46.7271822,24.6139017 48.0209678,24.8184167 49.2812573,24.2789349 C50.2760905,23.8530725 51.0439879,23.0063976 51.0665978,22.0183296 C51.0841832,21.2423512 51.1436387,20.4579564 50.6638076,19.7745568 C50.191513,19.1020982 49.3850951,19.1525958 48.734434,18.8613934 C47.5830067,18.3454772 46.3989207,18.7393578 45.2399567,18.6046978 C44.8187437,19.4875626 45.1403059,20.4268163 45.0381429,21.3332467 C45.0306063,21.3988935 45.0373055,21.4670651 45.0373055,21.5343951 L45.0373055,21.5343951 Z M45.0984359,33.6512732 L45.0950863,33.6512732 L45.0950863,36.6398843 C46.12844,36.9613851 47.1877531,36.7097392 48.2328304,36.7779109 C48.7637431,36.8124175 49.2988428,36.768653 49.8314302,36.7880104 C50.5909536,36.8149424 51.1051182,36.3343744 51.6971613,35.9707923 C52.478457,35.4902243 52.2222121,34.5795858 52.6375633,33.9332177 C53.0043453,33.3600709 52.2297487,32.8104896 52.1811794,32.1270899 C52.1426589,31.5842417 51.2499887,31.3334374 50.6621327,31.1474382 C49.8180318,30.8814846 48.9672317,30.5944905 48.036041,30.712318 C47.0638176,30.8343536 46.0664722,30.5692417 45.0984359,30.8646522 L45.0984359,33.6512732 Z M34.5865324,27.5705311 C34.5865324,22.3255228 34.5949064,17.0805146 34.5756461,11.8355062 C34.573134,11.2059706 34.5865324,10.8920444 35.4080234,10.9021439 C40.024619,10.9576912 44.6495885,10.7632757 49.2544605,10.9997724 C51.5321931,11.1167583 53.9305115,11.326323 56.0164792,12.5475212 C59.4900214,14.5817293 61.2577764,17.6418785 60.6364243,21.3938437 C60.3416589,23.1755643 59.5695746,25.0448138 57.6393637,25.9504025 C57.2943541,26.1119946 57.1679065,26.6237027 56.7366447,26.6767251 C56.0767721,26.7575211 56.3665131,27.0209498 56.6336443,27.2153652 C56.9861904,27.4729026 57.3546471,27.7455892 57.7599495,27.8836157 C60.179203,28.70925 61.4470292,30.7156845 62.147097,32.883711 C62.7106684,34.6292417 62.5138789,36.604536 61.7158351,38.4165552 C60.4915538,41.2006514 58.2916996,42.7829067 55.5014771,43.6413644 C54.0452356,44.089109 52.5203271,44.3971438 51.0188658,44.4240759 C45.8688454,44.5166546 40.7154754,44.461949 35.5637802,44.4577409 C34.6049552,44.4560576 34.589882,44.4434332 34.5890445,43.507546 C34.5840202,38.1952077 34.5865324,32.883711 34.5865324,27.5705311 L34.5865324,27.5705311 Z" id="Fill-5"></path>
                        <path d="M73.9779919,22.0250626 L73.9779919,23.6300419 C73.9788293,25.5523138 73.9796667,25.489192 75.8562839,25.5051828 C76.5437907,25.5110742 77.0855896,25.176949 77.6734456,25.0170403 C79.4889325,24.5196397 80.038268,22.7101455 79.2946553,20.8796107 C78.6272461,19.2375999 77.274005,19.0945237 75.8847556,19.026352 C73.9813415,18.9329316 73.9788293,18.9876372 73.9779919,20.8215385 L73.9779919,22.0250626 M63.125266,27.7119241 L63.125266,12.785701 C63.125266,12.4498926 63.0850706,12.1073512 63.1336399,11.7782757 C63.2458517,11.0199714 63.7918376,10.9206596 64.4408239,10.9231845 C68.120367,10.9358088 71.8032597,11.0166049 75.4786157,10.892886 C77.3979404,10.8280808 79.2737203,11.1857716 81.1193536,11.4348926 C83.2346303,11.7185203 85.4328097,12.5466795 86.9660923,14.1651247 C88.4876511,15.7692624 89.6575013,17.6999506 89.6541517,20.0834332 C89.6533142,20.7558918 89.5988831,21.4342417 89.6650379,22.0991256 C89.8115832,23.5652368 89.438102,24.9429772 88.7263106,26.1456596 C88.0388038,27.3071024 87.5665093,28.6848428 86.1060807,29.2933379 C85.4587692,29.5643412 84.8122951,30.1560037 84.47231,30.7720733 C84.0452351,31.5438437 85.0409058,31.9966381 85.3549313,32.5731514 C86.6746764,34.9936654 88.0580641,37.3855642 89.4816469,39.7513727 C90.2704797,41.0617831 91.2092067,42.3469449 91.7133228,43.8551373 C91.8506565,44.266692 92.2676823,44.468682 91.4939235,44.4627906 C90.022608,44.4510079 88.5504562,44.4594241 87.0791414,44.4594241 C85.0718896,44.4594241 83.0646377,44.4367003 81.0582233,44.4720485 C80.4142614,44.4829896 80.1052601,44.3256057 79.7836979,43.6767127 C78.1758866,40.4406637 76.4592132,37.2593205 74.7835724,34.0560949 C74.6981573,33.8919781 74.6688483,33.6925129 74.5616609,33.5460701 C74.4561482,33.4004689 74.2610337,33.1841713 74.1488218,33.2085784 C73.9235608,33.2548677 73.9788293,33.5250294 73.9788293,33.7194448 C73.9779919,36.2737774 73.9779919,38.8289515 73.9779919,41.3841256 C73.9779919,42.1904026 73.9461706,42.9992044 73.9888781,43.8037981 C74.0181872,44.3466463 73.8146986,44.4720485 73.3072332,44.468682 C70.3646036,44.448483 67.4202992,44.4695236 64.4768322,44.4543744 C63.3647628,44.448483 63.1302903,44.1985203 63.1286155,43.0421273 C63.1202415,37.9326207 63.125266,32.8222723 63.125266,27.7119241" id="Fill-7"></path>
                        <path d="M136.704152,27.697364 C136.962072,26.736228 136.134719,25.6892463 136.204223,24.4730978 C136.23102,24.0287198 135.720205,23.3512115 135.411204,22.8294038 C134.174362,20.7388068 132.496209,19.2583881 129.857556,19.4098806 C129.525107,19.429238 129.186797,19.4368126 128.856023,19.4081973 C126.669568,19.2255647 125.194066,20.5174594 123.92959,21.9995614 C123.353457,22.6745447 122.827568,23.6533549 122.712007,24.4730978 C122.578023,25.4258176 122.199518,26.3356144 122.204542,27.3144245 C122.215428,29.5489395 122.616544,31.6403781 124.208444,33.3362529 C124.281298,34.5776501 125.585132,34.5776501 126.175501,35.3022894 C126.840397,36.1186658 127.943256,35.8249387 128.778982,36.2810995 C129.727759,36.7978574 130.725941,36.257534 131.558319,35.9267753 C133.296764,35.235801 134.891177,34.1745116 135.639814,32.3422935 C136.209248,30.9468789 136.67568,29.4875008 136.704152,27.697364 M147.133153,28.1855066 C147.496586,30.194466 146.464906,32.2690721 145.897986,34.4185829 C145.746416,34.9883632 145.290869,35.8182057 144.857932,35.9006849 C143.973636,36.0681683 144.123531,36.8264726 143.977823,37.2110954 C143.523951,38.3994701 142.909299,39.5129403 141.891855,40.1323765 C141.200162,40.5523474 140.584672,40.9386534 140.133312,41.5976459 C139.077348,41.406597 138.765835,42.5385829 138.023059,42.8104279 C136.744348,43.2792131 135.500806,43.8935995 134.117419,44.0602413 C133.034658,44.1915349 131.992093,44.6460125 130.869975,44.4591716 C130.304729,45.1863358 129.378562,45.0449428 128.852674,44.8067629 C127.383871,44.1401957 125.809556,44.7066095 124.324006,44.0972728 C122.121639,43.1950505 119.758492,42.673243 118.024232,40.8629071 C117.62563,40.4446194 116.971618,40.1862405 116.68439,39.8184502 C115.638475,38.4768996 114.078396,37.4459088 113.785305,35.6002247 C113.686492,34.9774221 112.951253,34.8528615 112.917757,34.1223308 C112.888448,33.4826957 112.280494,32.8834586 112.191729,32.231199 C111.906175,30.1490183 111.457328,28.0373806 111.805688,25.9509917 C112.061932,24.4200755 112.143161,22.7965804 112.973026,21.4028491 C113.425222,20.6445448 113.266116,19.4267131 114.527243,19.2583881 C113.982932,18.7079652 114.51217,18.2366551 114.746642,17.8755979 C115.105888,17.325175 115.663597,16.9043623 116.136729,16.4288441 C116.562966,16.0012985 117.00344,15.5855356 117.412092,15.1419992 C118.294713,14.1833881 119.393384,13.5050381 120.540624,12.9815473 C121.603288,12.4959295 122.524429,11.5541509 123.842499,11.7367835 C126.702226,10.2588898 129.777165,11.1804693 132.746592,10.9288234 C134.746307,11.5928657 136.809665,11.9505564 138.710567,13.0530854 C140.23715,13.9367919 141.310699,15.3338897 142.855705,16.1250174 C143.485431,16.4473599 143.547399,17.18799 143.970286,17.6870738 C145.764839,19.8003947 146.368606,22.4717131 147.094632,25.0504528 C147.339991,25.9223765 147.133153,26.9230688 147.133153,28.1855066" id="Fill-9"></path>
                        <path d="M210.641698,27.7508072 C210.641698,22.5680792 210.658446,17.3861928 210.624112,12.2034648 C210.619088,11.488925 210.770657,11.2987176 211.500872,11.3121837 C214.245875,11.3635228 216.991714,11.3222831 219.737555,11.3382741 C220.852137,11.3441654 221.088284,11.5932865 221.089121,12.7488379 C221.095821,19.8832948 221.092471,27.0177517 221.092471,34.1513669 C221.092471,34.2868685 221.09917,34.4215286 221.091633,34.555347 C221.007056,35.956653 221.006218,35.970119 222.277394,35.9734855 C225.223374,35.9810601 228.171028,35.983585 231.117007,35.9684357 C231.633683,35.9659109 231.980368,35.9583362 231.962783,36.6754009 C231.912538,38.6927765 231.959433,40.712677 231.940173,42.7325775 C231.929286,43.8342649 231.691464,44.049721 230.498167,44.0514042 C224.136426,44.0598205 217.774686,44.0471961 211.412107,44.0682367 C210.815878,44.06992 210.6216,43.9234772 210.627462,43.2981497 C210.659283,40.2018106 210.641698,37.1054714 210.641698,34.0099739 L210.641698,27.7508072 Z" id="Fill-11"></path>
                        <path d="M102.516726,23.857449 C102.516726,27.4915867 102.514213,31.1265659 102.517563,34.7607036 C102.519238,35.9617028 102.525937,35.9718023 103.635494,35.9734855 C106.649302,35.9793769 109.663112,35.9827434 112.676083,35.9684357 C113.148377,35.9659109 113.406297,36.0281911 113.380338,36.6089125 C113.270638,39.075716 113.549493,41.5509358 113.210345,44.0135311 C110.939312,44.0278387 108.668278,44.049721 106.396408,44.0530875 C102.044431,44.0598205 97.6907799,44.0539291 93.3388029,44.056454 C92.624499,44.0572956 92.0282688,44.0025899 92.7877923,43.1272997 C92.0960991,40.1875029 92.5742547,37.2039415 92.4871653,34.2431041 C92.398401,31.2166198 92.4679053,28.1859275 92.4679053,25.1569183 L92.4679053,16.0715742 L92.4679053,14.0516737 C92.4679053,13.7823537 92.510613,13.5054589 92.4612057,13.2453967 C92.098611,11.3416405 92.0927493,11.3382741 93.9668544,11.3340659 C96.4447254,11.3290161 98.9225973,11.3281745 101.400469,11.3349075 C102.507514,11.3382741 102.514213,11.3475319 102.515051,12.5502143 C102.518401,16.319012 102.516726,20.0886513 102.516726,23.857449" id="Fill-13"></path>
                        <path d="M8.3081972,0.0215290216 C10.8212397,-0.164470149 13.4238841,2.41847761 13.2991113,5.07128026 C13.1785255,7.64076202 11.4585024,10.0553847 8.309872,10.0402355 C5.24916879,10.0250862 3.45377956,8.28713018 3.26117717,4.76829519 C3.1782744,3.26346932 4.10862768,2.12895854 5.14868059,1.12574129 C5.88391928,0.415409619 7.00854976,0.0164792704 8.3081972,0.0215290216" id="Fill-15"></path>
                        <path d="M24.6391213,0.0215290216 C27.1739362,-0.116497512 29.7481091,2.1643068 29.7121009,4.7186393 C29.6610193,8.29049668 27.7701663,9.98048007 24.73626,10.0419188 C21.5524587,10.1067239 19.8215494,7.58268988 19.6976139,5.12177778 C19.5619549,2.40753649 22.1612497,-0.130805141 24.6391213,0.0215290216" id="Fill-17"></path>
                    </g>
                </g>
            </g>
        </g>
    </g>
</svg>